<svg width="500" height="419" viewBox="0 0 500 419" fill="none" xmlns="http://www.w3.org/2000/svg">
<path d="M36 336.501L89.0773 336.26L142.165 336.17L248.319 336L354.484 336.17L407.561 336.26L460.639 336.501L407.561 336.741L354.484 336.831L248.319 337.001L142.165 336.831L89.0773 336.741L36 336.501Z" fill="#263238"/>
<path d="M250.271 415.552C366.426 415.552 460.588 404.576 460.588 391.036C460.588 377.496 366.426 366.52 250.271 366.52C134.116 366.52 39.9541 377.496 39.9541 391.036C39.9541 404.576 134.116 415.552 250.271 415.552Z" fill="#EBEBEB"/>
<path d="M277.77 395.611C279.852 396.312 339.457 396.522 341.739 395.09C342.61 394.55 343.141 385.87 343.491 375.369C343.571 373.097 343.631 370.754 343.691 368.361L348.516 336.577L308.673 336.317L304.909 368.121L305.059 375.129C305.059 375.129 282.205 385.26 279.872 387.092C277.54 388.924 275.698 394.9 277.77 395.611Z" fill="#EB9481"/>
<path d="M277.77 395.611C279.852 396.312 339.457 396.522 341.739 395.09C342.79 394.43 343.371 381.756 343.691 368.372L304.909 368.131L305.059 375.139C305.059 375.139 282.205 385.27 279.872 387.102C277.54 388.934 275.698 394.9 277.77 395.611Z" fill="white"/>
<path d="M277.77 395.611C279.852 396.312 339.457 396.522 341.739 395.09C342.61 394.55 343.141 385.87 343.491 375.369L305.059 375.119C305.059 375.119 282.205 385.25 279.872 387.082C277.54 388.914 275.698 394.9 277.77 395.611Z" fill="#FFCD00"/>
<path d="M278.64 393.228C288.651 393.018 328.955 393.108 338.845 393.659C338.925 393.659 338.925 393.719 338.845 393.729C328.945 394.149 288.621 393.729 278.63 393.389C278.42 393.378 278.43 393.228 278.64 393.228Z" fill="#263238"/>
<path d="M283.717 384.949C284.834 384.918 285.946 385.121 286.981 385.545C288.015 385.969 288.949 386.605 289.723 387.412C291.122 388.843 291.917 390.757 291.946 392.758C291.946 392.818 291.825 392.818 291.815 392.758C291.489 390.785 290.532 388.971 289.088 387.587C287.645 386.203 285.792 385.323 283.807 385.08C283.79 385.092 283.768 385.096 283.748 385.092C283.727 385.089 283.709 385.077 283.697 385.06C283.685 385.042 283.68 385.021 283.684 385C283.688 384.98 283.699 384.961 283.717 384.949Z" fill="#263238"/>
<path d="M301.185 376.1C305.19 376.1 309.815 377.491 312.287 380.765C312.387 380.895 312.207 381.025 312.087 380.965C308.582 379.121 304.891 377.654 301.075 376.59C301.01 376.576 300.954 376.536 300.918 376.48C300.882 376.423 300.87 376.355 300.885 376.29C300.9 376.225 300.939 376.168 300.996 376.133C301.052 376.097 301.12 376.085 301.185 376.1Z" fill="#263238"/>
<path d="M298.092 377.291C302.096 377.291 306.721 378.683 309.194 381.966C309.294 382.086 309.114 382.227 308.994 382.156C305.491 380.309 301.799 378.846 297.982 377.792C297.926 377.768 297.879 377.726 297.851 377.672C297.823 377.617 297.814 377.555 297.827 377.495C297.841 377.436 297.874 377.383 297.923 377.345C297.971 377.308 298.031 377.289 298.092 377.291Z" fill="#263238"/>
<path d="M294.998 378.492C299.002 378.442 303.627 379.874 306.11 383.157C306.2 383.278 306.02 383.418 305.9 383.358C302.399 381.503 298.707 380.036 294.888 378.983C294.823 378.968 294.766 378.929 294.73 378.872C294.695 378.816 294.683 378.748 294.698 378.683C294.712 378.618 294.752 378.561 294.808 378.525C294.865 378.49 294.933 378.478 294.998 378.492Z" fill="#263238"/>
<path d="M291.905 379.683C295.909 379.683 300.544 381.065 303.017 384.348C303.107 384.469 302.927 384.609 302.807 384.549C299.306 382.694 295.614 381.227 291.795 380.174C291.73 380.159 291.673 380.119 291.638 380.063C291.602 380.007 291.59 379.939 291.605 379.874C291.619 379.809 291.659 379.752 291.715 379.716C291.772 379.681 291.84 379.669 291.905 379.683Z" fill="#263238"/>
<path d="M336.364 384.158C340.858 384.158 340.818 391.166 336.364 391.166C331.909 391.166 331.839 384.128 336.364 384.158Z" fill="#263238"/>
<path d="M297.202 371.275C299.344 374.068 302.627 375.84 305.47 377.812C305.537 377.85 305.612 377.871 305.688 377.875C305.765 377.879 305.841 377.864 305.912 377.833C305.982 377.802 306.044 377.755 306.092 377.696C306.141 377.636 306.175 377.566 306.191 377.491C306.207 377.495 306.223 377.494 306.238 377.49C306.254 377.486 306.268 377.478 306.28 377.467C306.291 377.457 306.3 377.443 306.306 377.428C306.311 377.413 306.313 377.397 306.311 377.381C306.033 373.711 304.794 370.179 302.717 367.14C301.476 365.388 298.933 363.747 296.901 365.418C294.869 367.09 295.94 369.653 297.202 371.275ZM297.021 367.961C297.442 363.616 301.356 366.96 302.217 368.292C302.759 369.16 303.244 370.063 303.668 370.994C304.511 372.935 305.256 374.916 305.901 376.931C304.569 375.87 303.148 374.929 301.776 373.928C300.145 372.736 296.801 370.364 297.021 367.961Z" fill="#263238"/>
<path d="M320.526 374.878C320.226 372.265 317.242 371.695 315.14 372.085C311.539 372.84 308.198 374.524 305.45 376.971C305.435 376.98 305.423 376.992 305.415 377.007C305.407 377.022 305.402 377.039 305.402 377.056C305.402 377.073 305.407 377.089 305.415 377.104C305.423 377.119 305.435 377.132 305.45 377.141C305.407 377.205 305.381 377.279 305.374 377.356C305.366 377.432 305.377 377.51 305.405 377.582C305.434 377.653 305.479 377.717 305.537 377.767C305.595 377.818 305.665 377.854 305.74 377.872C309.164 378.412 312.748 379.423 316.241 378.873C318.284 378.592 320.816 377.351 320.526 374.878ZM311.106 377.631C309.414 377.411 307.752 377.101 306.1 376.941C307.992 375.99 309.834 374.938 311.817 374.208C312.769 373.829 313.746 373.515 314.74 373.267C316.281 372.916 321.427 373.207 318.744 376.63C317.172 378.512 313.118 377.882 311.106 377.631Z" fill="#263238"/>
<path d="M407.08 189.619C407.08 189.619 360.8 268.344 359.559 273.87C357.656 282.369 347.546 366.239 347.546 366.239L299.394 365.378C299.394 365.378 307.693 291.419 315.551 267.062C321.217 249.513 362.051 191.31 362.051 191.31L407.08 189.619Z" fill="#37474F"/>
<path d="M303.788 357.99C310.705 357.94 335.212 357.67 344.412 358.521C344.43 358.521 344.448 358.528 344.461 358.541C344.474 358.555 344.482 358.572 344.482 358.591C344.482 358.61 344.474 358.627 344.461 358.641C344.448 358.654 344.43 358.661 344.412 358.661C341.248 359.112 310.705 358.401 303.788 358.181C303.773 358.186 303.757 358.187 303.741 358.184C303.725 358.182 303.71 358.176 303.698 358.167C303.685 358.157 303.674 358.145 303.667 358.131C303.66 358.117 303.656 358.101 303.656 358.085C303.656 358.07 303.66 358.054 303.667 358.04C303.674 358.026 303.685 358.014 303.698 358.004C303.71 357.995 303.725 357.989 303.741 357.987C303.757 357.984 303.773 357.985 303.788 357.99Z" fill="#263238"/>
<path d="M399.181 196.846C396.177 201.601 392.944 206.256 389.841 210.971C386.737 215.686 383.654 220.412 380.601 225.167C374.507 234.657 368.554 244.234 362.741 253.898C359.923 258.345 357.508 263.036 355.524 267.913C353.717 272.815 352.359 277.871 351.469 283.019C350.518 288.195 349.897 293.41 349.317 298.626C348.689 304.179 348.069 309.731 347.455 315.284C346.187 326.63 344.919 337.995 343.651 349.381C343.491 350.772 343.34 352.174 343.2 353.565C343.2 353.776 343.541 353.816 343.571 353.565C344.982 342.273 346.163 330.951 347.455 319.639L349.377 302.801C349.968 297.565 350.538 292.329 351.379 287.114C352.13 281.984 353.265 276.918 354.773 271.957C356.423 266.817 358.643 261.878 361.39 257.231C366.966 247.611 372.872 238.151 378.779 228.721C384.685 219.29 390.742 209.7 396.978 200.36C397.739 199.209 398.52 198.057 399.321 196.926C399.431 196.836 399.241 196.756 399.181 196.846Z" fill="#263238"/>
<path d="M366.165 402.228C368.358 402.368 427.502 386.782 429.344 384.819C429.425 384.701 429.473 384.562 429.484 384.419C429.714 382.477 426.691 375.219 424.568 365.919C424.438 365.328 423.327 362.505 421.765 358.691C417.471 348.23 409.813 330.25 409.813 330.25L371.201 340.161L385.416 368.742L387.338 375.459C387.338 375.459 367.807 391.086 366.025 393.479C364.243 395.871 363.983 402.068 366.165 402.228Z" fill="#EB9481"/>
<path d="M366.165 402.228C368.358 402.368 427.502 386.781 429.344 384.819C429.425 384.7 429.473 384.562 429.484 384.419C429.714 382.477 426.691 375.219 424.568 365.919C424.438 365.328 423.327 362.505 421.765 358.691L385.426 368.702L387.348 375.419C387.348 375.419 367.817 391.046 366.035 393.438C364.253 395.831 363.983 402.068 366.165 402.228Z" fill="white"/>
<path d="M366.165 402.218C368.358 402.378 427.502 386.781 429.344 384.819C430.044 384.078 428.513 376.079 424.568 365.918L387.348 375.469C387.348 375.469 367.817 391.076 366.035 393.488C364.253 395.901 363.983 402.068 366.165 402.218Z" fill="#FFCD00"/>
<path d="M366.396 399.695C376.007 396.952 415.029 386.781 424.739 384.789C424.819 384.789 424.829 384.789 424.739 384.859C415.279 387.782 376.177 397.643 366.426 399.875C366.236 399.905 366.196 399.755 366.396 399.695Z" fill="#263238"/>
<path d="M369.209 390.405C370.276 390.097 371.397 390.014 372.498 390.162C373.599 390.311 374.658 390.686 375.606 391.266C377.32 392.296 378.574 393.944 379.11 395.871C379.11 395.931 379.009 395.961 378.989 395.871C378.166 394.04 376.77 392.525 375.011 391.556C373.253 390.586 371.227 390.214 369.239 390.495C369.233 390.504 369.224 390.512 369.214 390.516C369.203 390.521 369.192 390.523 369.181 390.521C369.17 390.52 369.159 390.515 369.151 390.508C369.142 390.501 369.136 390.491 369.132 390.481C369.128 390.47 369.128 390.458 369.131 390.448C369.133 390.437 369.139 390.427 369.147 390.419C369.155 390.411 369.165 390.405 369.176 390.403C369.187 390.4 369.198 390.401 369.209 390.405Z" fill="#263238"/>
<path d="M383.844 377.401C387.698 376.34 392.543 376.54 395.767 379.083C395.897 379.183 395.767 379.363 395.627 379.333C391.782 378.43 387.852 377.944 383.904 377.882C383.849 377.874 383.798 377.849 383.759 377.81C383.72 377.771 383.695 377.72 383.688 377.665C383.682 377.61 383.693 377.554 383.721 377.506C383.749 377.459 383.793 377.422 383.844 377.401Z" fill="#263238"/>
<path d="M381.161 379.343C385.016 378.282 389.861 378.482 393.084 381.025C393.214 381.125 393.084 381.305 392.934 381.275C389.088 380.391 385.158 379.925 381.211 379.884C381.14 379.89 381.068 379.868 381.013 379.822C380.958 379.776 380.923 379.71 380.916 379.638C380.91 379.567 380.932 379.495 380.978 379.44C381.024 379.385 381.09 379.35 381.161 379.343Z" fill="#263238"/>
<path d="M378.469 381.285C382.333 380.224 387.168 380.424 390.402 382.967C390.522 383.067 390.402 383.237 390.252 383.217C386.407 382.316 382.477 381.833 378.529 381.775C378.469 381.773 378.413 381.75 378.369 381.71C378.325 381.669 378.297 381.615 378.29 381.556C378.283 381.497 378.297 381.437 378.33 381.387C378.362 381.338 378.412 381.301 378.469 381.285Z" fill="#263238"/>
<path d="M375.786 383.217C379.641 382.166 384.486 382.367 387.709 384.909C387.84 385.009 387.709 385.18 387.569 385.15C383.723 384.258 379.794 383.778 375.847 383.718C375.78 383.726 375.713 383.707 375.661 383.666C375.608 383.625 375.574 383.564 375.566 383.498C375.558 383.431 375.577 383.365 375.618 383.312C375.66 383.259 375.72 383.225 375.786 383.217Z" fill="#263238"/>
<path d="M419.893 376.25C424.238 375.129 425.98 381.886 421.625 382.997C417.27 384.109 415.538 377.361 419.893 376.25Z" fill="#263238"/>
<path d="M378.759 373.747C381.552 375.9 385.176 376.751 388.42 377.962C388.494 377.982 388.572 377.985 388.647 377.97C388.723 377.955 388.794 377.922 388.854 377.874C388.915 377.826 388.963 377.765 388.995 377.695C389.028 377.625 389.043 377.548 389.04 377.471C389.057 377.471 389.073 377.467 389.087 377.459C389.102 377.451 389.114 377.439 389.123 377.425C389.132 377.412 389.137 377.396 389.138 377.379C389.14 377.363 389.137 377.346 389.13 377.331C387.927 373.846 385.828 370.739 383.044 368.322C381.402 366.95 378.519 365.999 376.977 368.141C375.436 370.284 377.137 372.496 378.759 373.747ZM377.758 370.594C377.057 366.279 381.692 368.532 382.864 369.593C383.612 370.291 384.311 371.04 384.956 371.835C386.27 373.492 387.497 375.216 388.63 377.001C387.068 376.32 385.456 375.78 383.875 375.149C381.973 374.408 378.138 372.967 377.748 370.594H377.758Z" fill="#263238"/>
<path d="M402.235 371.294C401.284 368.842 398.231 369.052 396.319 369.973C393.024 371.613 390.221 374.092 388.19 377.161C388.179 377.173 388.172 377.189 388.169 377.205C388.166 377.221 388.167 377.238 388.172 377.254C388.177 377.27 388.185 377.285 388.197 377.296C388.209 377.308 388.224 377.316 388.24 377.321C388.218 377.394 388.214 377.471 388.227 377.547C388.24 377.622 388.271 377.693 388.317 377.754C388.363 377.816 388.422 377.865 388.49 377.9C388.559 377.934 388.634 377.952 388.711 377.952C392.164 377.601 395.888 377.661 399.122 376.27C401.014 375.459 403.146 373.607 402.235 371.294ZM393.826 376.36C392.144 376.57 390.452 376.7 388.821 376.97C390.362 375.525 391.976 374.158 393.656 372.876C394.48 372.27 395.343 371.718 396.239 371.224C397.64 370.483 402.696 369.462 400.934 373.457C399.923 375.669 395.848 376.11 393.826 376.36Z" fill="#263238"/>
<path d="M382.773 366.87L426.04 355.518C426.04 355.518 384.615 273.999 384.996 268.373C385.296 263.368 415.339 219.641 417.03 211.452C419.743 198.047 413.216 186.075 406.89 178.667L362.141 191.28C362.141 191.28 365.705 199.018 372.252 203.904C372.252 203.904 344.132 250.854 343.411 266.311C342.69 281.768 382.773 366.87 382.773 366.87Z" fill="#37474F"/>
<path d="M381.952 358.861C388.219 357.069 386.397 357.5 392.694 355.768C395.777 354.927 416.029 349.391 419.032 349.101C419.103 349.101 419.133 349.201 419.032 349.231C416.269 350.472 395.927 355.658 392.834 356.438C386.507 358.04 388.299 357.51 381.952 359.051C381.882 359.061 381.832 358.861 381.952 358.861Z" fill="#263238"/>
<path d="M365.315 202.132C369.602 203.723 373.745 205.679 377.698 207.978C377.73 207.994 377.754 208.022 377.765 208.056C377.777 208.09 377.774 208.126 377.758 208.158C377.742 208.19 377.714 208.214 377.681 208.226C377.647 208.237 377.61 208.234 377.578 208.218C373.403 206.396 369.139 204.655 365.074 202.612C365.019 202.576 364.978 202.521 364.961 202.457C364.943 202.392 364.95 202.324 364.98 202.265C365.009 202.205 365.06 202.159 365.122 202.134C365.184 202.11 365.252 202.109 365.315 202.132Z" fill="#263238"/>
<path d="M370.571 201.03C370.888 201.817 371.156 202.623 371.371 203.443C371.606 204.083 371.712 204.764 371.682 205.445C371.669 205.468 371.65 205.487 371.627 205.5C371.604 205.514 371.578 205.52 371.552 205.52C371.525 205.52 371.499 205.514 371.476 205.5C371.454 205.487 371.435 205.468 371.421 205.445C371.046 204.847 370.763 204.196 370.581 203.513C370.31 202.762 370.02 202.022 369.78 201.271C369.61 200.79 370.4 200.55 370.571 201.03Z" fill="#263238"/>
<path d="M370.571 196.976C370.391 196.285 370.21 195.605 370.02 194.914C369.83 194.223 369.57 193.512 369.43 192.792C369.43 192.682 369.229 192.732 369.259 192.792C369.43 193.482 369.51 194.203 369.63 194.904C369.75 195.605 369.89 196.305 370.03 196.996C370.294 198.308 370.628 199.605 371.031 200.88C370.327 200.829 369.642 200.62 369.029 200.27C368.432 199.776 368.005 199.107 367.808 198.358C367.527 197.577 367.277 196.786 366.987 196.015C366.627 195.17 366.339 194.296 366.126 193.402C366.126 193.282 365.926 193.332 365.946 193.402C366.291 195.29 366.824 197.137 367.537 198.918C367.848 199.619 368.078 200.34 368.769 200.68C369.528 201.002 370.347 201.162 371.171 201.151C371.261 201.151 371.402 201.151 371.382 201.021C371.171 199.739 370.911 198.328 370.571 196.976Z" fill="#263238"/>
<path d="M371.311 205.466C369.609 208.539 367.667 211.472 365.845 214.475C364.023 217.479 362.381 220.402 360.719 223.405C357.376 229.472 354.272 235.698 351.439 242.025C350.038 245.155 348.703 248.322 347.435 251.525C346.116 254.713 345.029 257.992 344.182 261.336C343.385 264.674 343.236 268.133 343.741 271.527C344.374 275.007 345.271 278.434 346.424 281.778C348.743 289.437 351.566 296.935 354.873 304.222C354.983 304.463 355.384 304.282 355.294 304.032C352.931 297.365 350.488 290.718 348.356 284.011C346.304 277.463 343.861 270.676 344.992 263.719C345.624 260.381 346.576 257.113 347.836 253.958C349.05 250.715 350.345 247.508 351.72 244.338C354.443 238.081 357.486 232.004 360.609 225.948C362.351 222.554 364.183 219.201 365.955 215.817C367.727 212.433 369.469 208.929 371.461 205.646C371.521 205.456 371.401 205.376 371.311 205.466Z" fill="#263238"/>
<path d="M403.896 198.898C403.086 198.768 401.894 199.048 398.401 198.808C397.429 198.722 396.466 198.565 395.517 198.338C394.555 198.187 393.641 197.817 392.845 197.257C391.576 196.056 390.54 194.63 389.791 193.052C388.855 191.425 388.138 189.681 387.659 187.866C387.659 187.756 387.469 187.806 387.489 187.916C387.679 188.918 387.779 189.919 388.049 190.98C388.307 191.933 388.642 192.864 389.05 193.763C389.693 195.541 390.77 197.131 392.184 198.388C393.766 199.579 395.978 199.799 397.89 199.939C399.001 200.019 403.356 199.939 403.896 199.279C404.057 199.169 404.047 198.928 403.896 198.898Z" fill="#263238"/>
<path d="M415.298 346.208C409.839 335.116 404.5 323.953 399.281 312.721C394.062 301.489 388.996 290.174 384.084 278.775C382.726 276.098 381.642 273.291 380.851 270.396C380.18 267.222 381.161 264.389 382.503 261.516C384.999 256.306 387.789 251.242 390.862 246.35C393.865 241.424 397.108 236.609 400.282 231.774C403.564 227.038 406.572 222.118 409.292 217.038C411.754 212.123 413.126 206.887 412.425 201.381C411.724 195.875 409.352 190.79 406.819 185.954C406.148 184.683 405.458 183.422 404.817 182.14C404.767 182.05 404.617 182.14 404.677 182.23C407.5 187.296 410.213 192.612 411.534 198.248C412.215 201.057 412.425 203.959 412.155 206.837C411.803 209.742 410.985 212.571 409.732 215.216C407.38 220.382 404.096 225.147 401.003 229.882C397.909 234.617 394.616 239.542 391.532 244.448C388.4 249.358 385.523 254.427 382.913 259.634C381.772 261.967 380.521 264.399 380.24 267.012C379.94 269.885 380.971 272.628 382.082 275.221C386.887 286.493 391.953 297.675 397.098 308.797C402.244 319.919 407.58 331.081 412.996 342.133L414.998 346.308C415.128 346.538 415.378 346.378 415.298 346.208Z" fill="#263238"/>
<path d="M361.15 95.1764C362.151 90.6014 367.237 80.2503 377.278 82.2725C391.613 85.1656 393.686 112.785 400.823 121.395C413.747 136.992 414.168 152.428 403.576 154.901C391.703 157.664 380.151 144.89 380.551 117.36C380.822 100.122 375.966 92.4835 372.543 92.994C369.119 93.5046 367.227 97.8593 367.227 97.8593L361.15 95.1764Z" fill="#263238"/>
<path d="M361.631 93.4645C362.34 91.3305 363.305 89.2902 364.504 87.388C365.707 85.439 367.303 83.7616 369.189 82.4627C371.142 81.1431 373.46 80.4707 375.816 80.5406C378.152 80.6111 380.437 81.2465 382.473 82.3926C384.459 83.5806 386.166 85.1819 387.479 87.0877C388.776 88.9602 389.855 90.9756 390.692 93.0942C392.283 97.2945 393.397 101.66 394.016 106.108C392.925 101.807 391.513 97.5942 389.791 93.5046C388.898 91.5049 387.801 89.6028 386.518 87.8285C385.271 86.0771 383.668 84.61 381.813 83.5238C379.955 82.4646 377.872 81.864 375.736 81.7719C373.622 81.6729 371.528 82.2175 369.73 83.3336C367.885 84.4966 366.284 86.006 365.015 87.7784C364.351 88.6634 363.739 89.5859 363.183 90.5414C362.622 91.4624 362.111 92.4535 361.631 93.4645Z" fill="#263238"/>
<path d="M380.501 107.86C380.651 110.593 380.501 113.336 380.441 116.069C380.381 118.802 380.271 121.525 380.261 124.248C380.251 126.971 380.341 129.684 380.621 132.377C380.849 135.058 381.339 137.71 382.083 140.295C382.786 142.865 383.972 145.277 385.576 147.403C387.259 149.473 389.292 151.232 391.583 152.599C393.876 153.991 396.466 154.821 399.141 155.021C400.479 155.125 401.825 155.054 403.145 154.811C403.824 154.684 404.493 154.51 405.147 154.29C405.799 154.098 406.42 153.811 406.989 153.44C405.873 154.252 404.602 154.828 403.255 155.131C401.912 155.481 400.529 155.653 399.141 155.642C397.74 155.616 396.348 155.418 394.996 155.051C393.648 154.672 392.348 154.138 391.122 153.46C389.894 152.786 388.734 151.995 387.659 151.097L386.868 150.416L386.107 149.706C385.591 149.219 385.109 148.697 384.665 148.144C382.944 145.911 381.666 143.369 380.901 140.656C379.514 135.297 378.981 129.753 379.32 124.228C379.4 121.485 379.61 118.752 379.85 116.029C380.09 113.306 380.411 110.593 380.501 107.86Z" fill="#263238"/>
<path d="M360.329 95.2566C360.169 93.9853 360.94 92.2534 361.74 91.9431C362.541 91.6327 368.928 93.6849 369.599 95.2166C370.27 96.7483 367.687 98.38 367.687 98.38L360.329 95.2566Z" fill="#FFCD00"/>
<path d="M367.978 140.345C364.043 145.961 335.593 169.196 320.076 170.057C313.068 170.438 285.659 167.454 279.552 164.942C272.054 161.858 286.88 143.288 291.565 144.079C297.432 145.08 318.234 147.273 322.378 147.383C329.026 147.553 349.408 136.371 363.132 133.458C370.23 131.966 371.021 136.02 367.978 140.345Z" fill="#EB9481"/>
<path d="M367.667 141.406C363.322 148.984 347.986 161.978 347.986 161.978L345.373 157.153L336.724 141.226C336.724 141.226 351.259 135.44 360.9 132.627C362.032 132.279 363.19 132.025 364.363 131.866C370.59 131.065 371.401 134.899 367.667 141.406Z" fill="#DBDBDB"/>
<path d="M367.667 141.406C363.323 148.984 347.986 161.978 347.986 161.978L345.373 157.153L343.591 153.87L336.714 141.236C336.714 141.236 351.26 135.43 360.9 132.617C362.034 132.279 363.192 132.028 364.364 131.866C364.487 131.857 364.611 131.857 364.734 131.866C370.62 131.225 371.341 135.029 367.667 141.406Z" fill="#DBDBDB"/>
<path d="M349.538 137.312C349.871 138.693 349.871 140.135 349.538 141.516C349.204 140.135 349.204 138.693 349.538 137.312ZM345.423 145.561C344.718 145.549 344.014 145.634 343.331 145.811C344.015 145.984 344.718 146.068 345.423 146.061C346.132 146.067 346.838 145.983 347.526 145.811C346.839 145.634 346.132 145.55 345.423 145.561ZM366.686 133.808C365.978 133.797 365.27 133.882 364.584 134.058C365.27 134.235 365.978 134.319 366.686 134.309C367.391 134.314 368.094 134.23 368.779 134.058C368.094 133.887 367.391 133.803 366.686 133.808ZM358.497 144.259C358.993 144.763 359.551 145.201 360.159 145.561C359.799 144.953 359.362 144.394 358.858 143.899C358.36 143.397 357.802 142.96 357.196 142.598C357.559 143.204 357.996 143.762 358.497 144.259ZM350.419 154.27C350.914 154.777 351.472 155.218 352.081 155.582C351.724 154.971 351.286 154.412 350.779 153.92C350.284 153.413 349.726 152.972 349.117 152.608C349.462 153.216 349.887 153.774 350.379 154.27H350.419Z" fill="white"/>
<path d="M350.659 158.425C349.207 155.491 342.8 143.679 341.248 141.216C341.138 141.046 341.008 141.066 341.088 141.216C343.926 147.118 347.081 152.863 350.538 158.425C350.579 158.545 350.699 158.505 350.659 158.425Z" fill="#263238"/>
<path d="M367.667 141.406C363.322 148.984 347.986 161.978 347.986 161.978L345.373 157.153L343.591 153.87C351.91 145.661 361.931 135.56 364.734 131.846C370.62 131.225 371.341 135.029 367.667 141.406Z" fill="#A6A6A6"/>
<path d="M353.482 176.314L355.754 201.341C358.816 201.2 361.867 200.892 364.894 200.42C372.879 199.222 380.791 197.574 388.59 195.485C396.328 193.483 405.398 190.72 415.769 187.036C415.769 187.036 392.314 144.73 376.126 133.057C375.756 132.787 375.396 132.537 375.025 132.306C374.955 132.246 374.885 132.216 374.815 132.166C367.457 127.511 360.8 131.165 357.116 136.351C356.185 137.652 347.175 158.134 347.626 165.002C348.036 171.038 353.482 176.314 353.482 176.314Z" fill="#DBDBDB"/>
<path d="M366.496 149.525C366.673 150.208 366.757 150.912 366.746 151.618C366.757 152.326 366.673 153.033 366.496 153.72C366.319 153.033 366.235 152.326 366.246 151.618C366.239 150.912 366.323 150.209 366.496 149.525ZM371.952 175.734C371.946 176.442 372.03 177.148 372.202 177.836C372.384 177.15 372.468 176.443 372.452 175.734C372.463 175.025 372.379 174.318 372.202 173.631C372.03 174.319 371.946 175.025 371.952 175.734ZM389.421 160.817C389.41 161.526 389.494 162.233 389.671 162.92C390.005 161.538 390.005 160.097 389.671 158.715C389.494 159.402 389.41 160.109 389.421 160.817ZM357.386 172.54C357.375 173.249 357.459 173.956 357.636 174.642C357.97 173.261 357.97 171.819 357.636 170.438C357.459 171.124 357.375 171.831 357.386 172.54ZM377.568 154.09C376.859 154.084 376.153 154.168 375.465 154.34C376.847 154.674 378.288 154.674 379.67 154.34C378.986 154.169 378.283 154.085 377.578 154.09H377.568ZM392.464 172.76C391.755 172.745 391.047 172.829 390.362 173.011C391.743 173.344 393.184 173.344 394.566 173.011C393.883 172.835 393.179 172.751 392.474 172.76H392.464ZM369.819 187.556C369.114 187.545 368.41 187.629 367.727 187.807C368.41 187.984 369.114 188.068 369.819 188.057C370.528 188.068 371.235 187.983 371.922 187.807C371.238 187.635 370.535 187.551 369.829 187.556H369.819ZM396.198 184.673C395.493 184.668 394.79 184.752 394.106 184.923C395.484 185.257 396.922 185.257 398.3 184.923C397.613 184.752 396.906 184.667 396.198 184.673ZM366.686 133.778C365.977 133.768 365.27 133.852 364.584 134.029C365.27 134.205 365.977 134.289 366.686 134.279C367.391 134.284 368.094 134.2 368.778 134.029C368.093 133.867 367.39 133.793 366.686 133.808V133.778ZM377.398 138.413C377.893 138.92 378.451 139.361 379.059 139.725C378.705 139.113 378.267 138.553 377.758 138.063C377.263 137.556 376.704 137.115 376.096 136.751C376.457 137.371 376.898 137.939 377.408 138.443L377.398 138.413ZM399.271 161.829C399.766 162.336 400.325 162.776 400.933 163.14C400.575 162.53 400.138 161.971 399.632 161.478C399.135 160.973 398.576 160.533 397.97 160.167C398.328 160.785 398.765 161.354 399.271 161.859V161.829ZM364.293 164.331C364.788 164.838 365.347 165.279 365.955 165.643C365.208 164.417 364.178 163.387 362.952 162.639C363.32 163.271 363.772 163.85 364.293 164.361V164.331ZM384.415 181.28C384.91 181.787 385.469 182.227 386.077 182.591C385.329 181.365 384.3 180.335 383.074 179.588C383.444 180.208 383.895 180.777 384.415 181.28ZM358.547 144.24C359.042 144.743 359.601 145.181 360.209 145.541C359.849 144.933 359.412 144.374 358.908 143.879C358.41 143.378 357.852 142.94 357.246 142.578C357.591 143.188 358.012 143.753 358.497 144.26L358.547 144.24ZM357.126 157.394C357.63 156.897 358.071 156.338 358.437 155.732C357.827 156.089 357.268 156.527 356.775 157.033C356.268 157.528 355.827 158.087 355.464 158.695C356.051 158.335 356.592 157.904 357.076 157.414L357.126 157.394ZM404.627 175.273C405.134 174.78 405.572 174.221 405.928 173.611C404.699 174.355 403.669 175.385 402.925 176.615C403.53 176.247 404.086 175.803 404.577 175.293L404.627 175.273ZM359.718 182.441C360.222 181.946 360.66 181.387 361.02 180.779C359.791 181.523 358.76 182.553 358.017 183.782C358.622 183.415 359.177 182.971 359.668 182.461L359.718 182.441ZM386.527 147.934C387.034 147.439 387.475 146.88 387.839 146.272C387.229 146.633 386.67 147.074 386.177 147.583C385.67 148.078 385.229 148.637 384.866 149.245C385.455 148.884 385.997 148.45 386.477 147.954L386.527 147.934ZM379.88 192.882C380.39 192.389 380.831 191.83 381.192 191.22C380.582 191.581 380.023 192.022 379.53 192.532C379.023 193.027 378.582 193.585 378.218 194.193C378.808 193.833 379.349 193.399 379.83 192.902L379.88 192.882ZM379.88 165.853C380.392 165.363 380.834 164.803 381.192 164.191C379.966 164.939 378.936 165.968 378.188 167.194C378.801 166.821 379.36 166.366 379.85 165.843L379.88 165.853Z" fill="white"/>
<path d="M370.22 131.736C370.08 132.737 366.096 139.244 361.751 139.414C360.329 139.464 359.699 131.756 359.699 131.756L359.519 131.195L357.046 123.377L365.895 116.599L367.187 115.688C367.187 115.688 367.717 117.881 368.358 120.604L368.448 120.994C368.448 121.144 368.528 121.285 368.558 121.435L368.859 122.666C368.929 122.986 368.999 123.297 369.059 123.667L369.269 124.668C369.747 127 370.065 129.361 370.22 131.736Z" fill="#EB9481"/>
<path d="M368.398 120.604C367.787 122.914 366.68 125.062 365.153 126.9C363.626 128.738 361.717 130.221 359.559 131.245L357.086 123.427L365.895 116.599L367.187 115.688C367.187 115.688 367.717 117.831 368.398 120.604Z" fill="#263238"/>
<path d="M346.074 111.594C346.004 125.99 354.623 127.662 357.726 127.672C360.539 127.672 370.14 127.361 371.741 113.046C373.343 98.7305 366.626 94.1555 360.189 93.7851C353.752 93.4147 346.144 97.1688 346.074 111.594Z" fill="#EB9481"/>
<path d="M370.91 114.017C368.558 114.257 367.907 109.322 367.907 109.322C367.907 109.322 363.112 109.462 361.36 102.594C361.546 104.66 362.332 106.627 363.623 108.251C363.623 108.251 355.123 107.59 351.379 100.582C351.379 100.582 352.891 104.156 354.252 105.407C352.091 104.798 350.198 103.479 348.877 101.663C348.877 101.663 347.495 105.788 346.384 106.939C346.384 106.939 344.742 99.6913 347.755 95.9272C354.102 87.9186 364.524 94.9262 364.524 94.9262C364.524 94.9262 370.35 95.8071 372.432 100.172C375.646 106.849 370.91 114.017 370.91 114.017Z" fill="#263238"/>
<path d="M369.399 114.107C369.399 114.107 372.162 109.371 374.294 110.323C376.427 111.274 374.595 117.961 372.292 119.042C372.008 119.202 371.694 119.303 371.369 119.34C371.044 119.376 370.716 119.347 370.403 119.253C370.09 119.16 369.799 119.004 369.547 118.796C369.296 118.588 369.089 118.331 368.938 118.041L369.399 114.107Z" fill="#EB9481"/>
<path d="M347.876 108.681C348.214 108.622 348.548 108.542 348.877 108.441C349.23 108.401 349.561 108.246 349.818 108C349.888 107.911 349.927 107.799 349.927 107.685C349.927 107.571 349.888 107.46 349.818 107.37C349.647 107.22 349.439 107.118 349.216 107.074C348.992 107.03 348.761 107.046 348.546 107.119C348.088 107.206 347.678 107.46 347.395 107.83C347.34 107.915 347.309 108.013 347.306 108.113C347.303 108.214 347.327 108.314 347.377 108.402C347.426 108.489 347.499 108.562 347.587 108.611C347.675 108.661 347.775 108.685 347.876 108.681Z" fill="#263238"/>
<path d="M357.265 109.802C356.929 109.769 356.594 109.715 356.264 109.642C355.898 109.635 355.546 109.505 355.263 109.272C355.191 109.182 355.151 109.071 355.151 108.956C355.151 108.841 355.191 108.73 355.263 108.641C355.42 108.477 355.618 108.359 355.837 108.299C356.055 108.239 356.286 108.24 356.505 108.301C356.969 108.352 357.399 108.569 357.716 108.911C357.781 108.994 357.821 109.093 357.831 109.197C357.842 109.302 357.822 109.407 357.775 109.5C357.727 109.594 357.654 109.672 357.564 109.726C357.474 109.779 357.37 109.806 357.265 109.802Z" fill="#263238"/>
<path d="M355.384 112.745C355.384 112.745 355.454 112.745 355.454 112.835C355.454 113.836 355.584 114.958 356.455 115.268V115.328C355.384 115.188 355.173 113.686 355.384 112.745Z" fill="#263238"/>
<path d="M356.214 111.704C357.796 111.554 357.976 114.708 356.505 114.878C355.033 115.048 354.883 111.825 356.214 111.704Z" fill="#263238"/>
<path d="M356.845 111.834C357.135 112.005 357.426 112.305 357.766 112.325C358.106 112.345 358.427 111.985 358.667 111.654H358.717C358.717 112.265 358.557 112.906 357.916 113.036C357.275 113.166 356.915 112.635 356.675 112.035C356.645 111.945 356.735 111.774 356.845 111.834Z" fill="#263238"/>
<path d="M349.868 112.795C349.868 112.795 349.788 112.845 349.798 112.886C349.888 113.887 349.798 115.018 348.957 115.398C350.048 115.228 350.108 113.716 349.868 112.795Z" fill="#263238"/>
<path d="M348.917 111.825C347.325 111.825 347.405 114.988 348.917 115.008C350.429 115.028 350.258 111.845 348.917 111.825Z" fill="#263238"/>
<path d="M348.266 112.044C348.016 112.225 347.776 112.535 347.475 112.565C347.175 112.595 346.855 112.255 346.624 111.924H346.574C346.574 112.535 346.794 113.166 347.385 113.266C347.976 113.366 348.296 112.825 348.386 112.215C348.456 112.145 348.376 111.974 348.266 112.044Z" fill="#263238"/>
<path d="M351.519 117.16C351.519 117.16 351.379 118.601 351.379 119.332C352.727 119.291 354.074 119.433 355.384 119.753C355.694 119.843 355.674 119.583 355.324 119.392C354.279 118.83 353.091 118.59 351.91 118.702C351.86 118.511 352.17 116.429 352.06 116.429C351.523 116.497 350.997 116.638 350.498 116.85C350.699 113.756 351.399 110.713 351.55 107.63C351.55 107.606 351.54 107.583 351.523 107.566C351.506 107.549 351.483 107.54 351.459 107.54C351.435 107.54 351.413 107.549 351.396 107.566C351.379 107.583 351.369 107.606 351.369 107.63C350.523 110.86 350 114.166 349.808 117.5C349.838 117.871 351.249 117.29 351.519 117.16Z" fill="#263238"/>
<path d="M353.012 119.332C353.514 119.992 354.216 120.47 355.014 120.694C356.225 120.814 356.305 119.693 354.954 119.182C354.305 119.054 353.633 119.106 353.012 119.332Z" fill="#263238"/>
<path d="M355.033 120.694C354.577 120.617 354.151 120.416 353.802 120.113C354.022 119.723 354.583 119.282 355.904 119.913C356.114 120.373 355.804 120.774 355.033 120.694Z" fill="#FF99BA"/>
<path d="M368.108 130.014C369.87 130.014 372.833 130.455 376.837 133.498C376.837 133.498 368.488 140.215 360.72 140.215C357.947 140.215 357.116 136.341 357.116 136.341C357.116 136.341 360.85 130.074 368.108 130.014Z" fill="#EB9481"/>
<path d="M500 418.245H467.294C443.529 418.245 428.993 401.817 426.38 371.995C425.089 357.289 424.298 339.49 423.467 320.65C420.904 262.757 417.39 183.502 394.856 183.502H368.958V177.495H394.856C423.127 177.495 426.35 250.144 429.463 320.399C430.294 339.18 431.085 356.919 432.366 371.455C433.998 390.055 441.376 412.229 467.294 412.229H500V418.245Z" fill="#FFCD00"/>
<path opacity="0.2" d="M387.979 177.475L386.697 183.482H368.958V177.475H387.979Z" fill="black"/>
<path d="M320.145 144.53H309.674V217.699H320.145V144.53Z" fill="#FFCD00"/>
<path d="M309.684 149.936H269.871V211.542H309.684V149.936Z" fill="#FFCD00"/>
<path opacity="0.2" d="M309.674 149.946V211.552H299.783L295.349 149.946H309.674Z" fill="black"/>
<path d="M239.318 160.997H269.861V170.207H239.318C238.272 170.207 237.269 169.791 236.529 169.052C235.79 168.312 235.374 167.309 235.374 166.263V164.951C235.373 164.433 235.474 163.919 235.671 163.439C235.869 162.959 236.159 162.523 236.526 162.156C236.892 161.789 237.327 161.497 237.807 161.298C238.286 161.099 238.799 160.997 239.318 160.997Z" fill="#DBDBDB"/>
<path d="M269.861 160.997H259.14V170.197H269.861V160.997Z" fill="#A6A6A6"/>
<path d="M239.318 191.28H269.861V200.49H239.318C238.272 200.49 237.269 200.075 236.529 199.335C235.79 198.595 235.374 197.592 235.374 196.546V195.235C235.373 194.716 235.474 194.202 235.671 193.722C235.869 193.242 236.159 192.806 236.526 192.439C236.892 192.072 237.327 191.78 237.807 191.581C238.286 191.383 238.799 191.28 239.318 191.28Z" fill="#DBDBDB"/>
<path d="M269.861 191.28H259.14V200.48H269.861V191.28Z" fill="#A6A6A6"/>
<path d="M382.023 174.862H350.919V187.146H382.023V174.862Z" fill="#FFCD00"/>
<path d="M382.023 174.873H350.919V187.156H382.023V174.873Z" fill="#FFCD00"/>
<path opacity="0.2" d="M361.841 174.873L360.82 187.156H350.919V174.873H361.841Z" fill="black"/>
<path d="M320.146 152.258H344.762C346.395 152.258 347.961 152.906 349.116 154.061C350.27 155.216 350.919 156.782 350.919 158.414V203.073C350.919 204.706 350.27 206.272 349.116 207.426C347.961 208.581 346.395 209.229 344.762 209.229H320.146V152.258Z" fill="#FFCD00"/>
<path opacity="0.2" d="M333.24 152.258L328.806 209.229H320.156V152.258H333.24Z" fill="black"/>
<g opacity="0.2">
<path d="M330.947 163.771H328.985V197.707H330.947V163.771Z" fill="black"/>
<path d="M336.514 163.771H334.552V197.707H336.514V163.771Z" fill="black"/>
<path d="M342.079 163.771H340.117V197.707H342.079V163.771Z" fill="black"/>
</g>
<path d="M379.139 140.496C382.583 150.156 377.647 185.544 371.811 193.042C363.142 204.154 346.013 214.375 339.466 217.569C336.603 218.96 323.779 198.458 326.572 196.546C332.579 192.432 351.709 182.611 353.331 180.659C354.953 178.707 363.682 159.957 367.176 149.415C371.871 135.26 377.407 135.62 379.139 140.496Z" fill="#EB9481"/>
<path d="M339.446 217.629C330.367 222.814 312.297 222.053 309.835 221.303L306.651 220.302C302.857 219.23 301.836 217.138 301.836 217.138C301.836 217.138 297.091 217.198 296.57 214.335C295.99 211.122 302.767 211.662 306.681 209.68C315.691 205.145 327.123 196.175 329.576 194.614L339.446 217.629Z" fill="#EB9481"/>
<path d="M319.425 211.542C316.818 212.908 314.118 214.088 311.346 215.076C308.252 215.973 305.097 216.642 301.906 217.078C301.89 217.084 301.877 217.094 301.868 217.107C301.859 217.121 301.854 217.137 301.854 217.153C301.854 217.169 301.859 217.185 301.868 217.199C301.877 217.212 301.89 217.222 301.906 217.228C308.169 217.058 314.266 215.174 319.535 211.782C319.665 211.702 319.555 211.482 319.425 211.542Z" fill="#263238"/>
<path d="M322.949 216.557C320.286 217.659 315.591 219.561 306.642 220.221C306.642 220.221 306.642 220.271 306.642 220.281C312.325 220.674 318.006 219.478 323.049 216.828C323.21 216.708 323.129 216.487 322.949 216.557Z" fill="#263238"/>
<path d="M317.143 203.543C318.074 202.542 317.523 202.002 315.061 202.442C312.598 202.883 303.238 206.747 302.167 203.373C301.095 199.999 314.39 194.734 318.544 194.303C322.298 194.109 326.061 194.22 329.796 194.634C327.414 196.175 321.768 200.46 317.143 203.543Z" fill="#EB9481"/>
<path d="M369.479 142.928C375.535 130.184 381.061 133.558 381.592 146.161C381.771 154.914 381.376 163.669 380.411 172.37L358.457 166.083C358.457 166.083 365.605 151.087 369.479 142.928Z" fill="#DBDBDB"/>
<path d="M374.945 135.5C376.171 136.247 377.201 137.277 377.948 138.503C376.722 137.756 375.693 136.726 374.945 135.5ZM366.246 151.637C366.235 152.346 366.319 153.053 366.496 153.74C366.673 153.053 366.757 152.346 366.746 151.637C366.758 150.932 366.673 150.228 366.496 149.545C366.323 150.229 366.239 150.932 366.246 151.637ZM377.578 154.11C376.869 154.104 376.163 154.188 375.476 154.36C376.857 154.694 378.299 154.694 379.68 154.36C378.994 154.182 378.287 154.091 377.578 154.09V154.11ZM364.294 164.361C364.789 164.868 365.347 165.309 365.955 165.673C365.208 164.446 364.178 163.417 362.952 162.669C363.323 163.29 363.774 163.859 364.294 164.361ZM379.85 165.843C380.363 165.352 380.804 164.793 381.162 164.181C379.936 164.928 378.906 165.958 378.159 167.184C378.781 166.816 379.35 166.365 379.85 165.843Z" fill="white"/>
<path d="M367.396 146.812C366.575 148.484 365.714 150.126 364.853 151.817C365 151.037 365.12 150.246 365.214 149.445H365.154C365.034 150.066 364.884 150.686 364.763 151.307C364.713 151.607 364.653 151.908 364.593 152.208C364.593 152.268 364.593 152.328 364.593 152.398C363.922 153.68 363.262 154.971 362.591 156.272C361.83 157.834 361.119 159.406 360.399 160.977C359.678 162.549 359.007 164.471 358.196 166.063C358.886 166.35 359.604 166.565 360.339 166.704C360.529 166.774 360.629 166.583 360.429 166.553C360.228 166.523 358.587 165.873 358.567 165.863C359.287 164.271 360.178 162.769 360.939 161.208C361.7 159.646 362.481 158.104 363.212 156.533C364.693 153.349 365.995 150.076 367.466 146.882C367.466 146.802 367.396 146.772 367.396 146.812Z" fill="#263238"/>
<path d="M382.503 154.4C382.303 155.051 382.072 155.701 381.902 156.402C381.842 156.683 381.772 156.953 381.702 157.233C381.782 154.951 381.856 152.675 381.922 150.406C381.612 154.13 381.292 157.844 381.051 161.568C380.703 165.134 380.539 168.716 380.561 172.299C379.903 172.143 379.233 172.04 378.559 171.989C379.287 172.298 380.05 172.517 380.831 172.64C381.382 169.036 381.422 165.052 381.602 161.428C381.652 160.427 381.682 159.426 381.722 158.354C381.842 157.724 382.022 157.103 382.193 156.482C382.363 155.862 382.493 155.141 382.633 154.48C382.583 154.38 382.513 154.36 382.503 154.4Z" fill="#263238"/>
<path d="M379.52 169.046C376.427 167.945 363.613 163.901 360.79 163.21C360.59 163.16 360.51 163.27 360.71 163.34C366.851 165.622 373.114 167.564 379.47 169.156C379.55 169.186 379.6 169.066 379.52 169.046Z" fill="#263238"/>
<path d="M271.894 165.653C274.897 166.574 274.286 162.469 274.286 162.469C274.286 162.469 276.639 168.155 280.133 167.905C283.626 167.655 282.545 162.719 282.485 162.359C282.605 162.659 284.908 167.825 288.391 167.214C291.875 166.604 290.203 161.778 290.083 161.478C290.294 161.718 293.087 164.912 295.649 163.841C300.014 161.999 293.047 153.63 293.557 149.825L299.694 150.006C299.895 149.986 300.096 149.956 300.294 149.916L300.525 146.782C298.564 145.986 296.669 145.035 294.858 143.939C292.546 142.638 290.314 141.456 288.652 141.416C287.906 141.377 287.168 141.578 286.545 141.991C285.923 142.404 285.451 143.006 285.198 143.709C285.198 143.709 283.396 140.866 280.633 141.266C279.222 141.476 278.301 143.929 278.301 143.929C277.857 143.301 277.248 142.809 276.541 142.506C275.834 142.204 275.057 142.104 274.296 142.217C272.354 142.618 271.734 145.02 271.734 145.02C271.734 145.02 269.271 143.569 267.419 144.63C263.705 146.692 265.407 163.65 271.894 165.653Z" fill="#EB9481"/>
<path d="M294.318 149.465L299.664 149.955C299.866 149.936 300.066 149.906 300.265 149.865C307.012 148.644 311.217 140.916 306.271 140.365C302.557 139.935 298.533 144.87 294.779 143.879L294.318 149.465Z" fill="#EB9481"/>
<path d="M271.604 145.331H271.514C270.663 151.252 271.633 157.292 274.297 162.649C274.387 162.819 274.697 162.739 274.637 162.539C272.795 156.981 271.773 151.184 271.604 145.331Z" fill="#263238"/>
<path d="M278.301 143.799C278.301 143.729 278.191 143.729 278.181 143.799C277.279 150.328 278.742 156.965 282.305 162.509C282.435 162.7 282.746 162.74 282.605 162.509C280.383 158.645 278.301 149.295 278.301 143.799Z" fill="#263238"/>
<path d="M290.484 161.718C287.03 156.272 285.659 150.266 285.148 143.899C285.148 143.819 285.028 143.839 285.008 143.899C284.417 147.082 285.168 151.107 286.009 154.19C286.744 157.065 288.217 159.699 290.284 161.828C290.384 161.918 290.564 161.838 290.484 161.718Z" fill="#263238"/>
<path d="M205.922 389.895C203.849 390.585 144.515 390.415 142.253 388.984C141.402 388.443 140.922 379.794 140.641 369.332C140.571 367.08 140.531 364.747 140.491 362.375C140.491 359.572 140.411 356.729 140.391 353.966C140.321 341.572 140.491 330.661 140.491 330.661H179.123V353.966V362.375L178.923 369.332C178.923 369.332 201.607 379.563 203.95 381.405C206.292 383.247 207.994 389.254 205.922 389.895Z" fill="#AD6359"/>
<path d="M205.922 389.895C203.85 390.585 144.516 390.415 142.254 388.984C141.403 388.443 140.922 379.794 140.642 369.332C140.572 367.08 140.532 364.747 140.492 362.375C140.492 359.572 140.412 356.729 140.392 353.966H179.103V362.375L178.903 369.332C178.903 369.332 201.588 379.563 203.93 381.405C206.273 383.247 207.995 389.254 205.922 389.895Z" fill="white"/>
<path d="M206.103 390.025C204.751 390.475 179.484 390.565 161.054 390.185C156.789 390.085 152.895 389.975 149.762 389.834C145.427 389.634 142.524 389.404 142.053 389.104C141.002 388.433 140.512 375.739 140.271 362.345H179.083L178.883 369.352C178.883 369.352 201.698 379.643 204.02 381.495C206.343 383.347 208.225 389.324 206.103 390.025Z" fill="#FFCD00"/>
<path d="M205.222 387.642C195.211 387.362 154.867 387.202 144.957 387.692C144.876 387.692 144.876 387.743 144.957 387.753C154.867 388.243 195.221 388.073 205.222 387.803C205.462 387.793 205.472 387.642 205.222 387.642Z" fill="#263238"/>
<path d="M180.335 367.13C176.4 366.389 171.585 366.98 168.572 369.773C168.452 369.883 168.572 370.043 168.742 370.003C172.506 368.797 176.39 368.002 180.325 367.63C180.391 367.632 180.455 367.607 180.503 367.561C180.551 367.515 180.579 367.452 180.58 367.385C180.581 367.319 180.556 367.255 180.51 367.207C180.464 367.159 180.401 367.131 180.335 367.13Z" fill="#263238"/>
<path d="M183.198 368.872C179.264 368.121 174.448 368.712 171.425 371.515C171.315 371.615 171.425 371.785 171.595 371.745C175.365 370.532 179.255 369.73 183.198 369.353C183.25 369.337 183.295 369.306 183.328 369.262C183.36 369.219 183.378 369.166 183.378 369.112C183.378 369.058 183.36 369.005 183.328 368.962C183.295 368.919 183.25 368.887 183.198 368.872Z" fill="#263238"/>
<path d="M186.011 370.574C182.076 369.823 177.261 370.414 174.248 373.207C174.128 373.317 174.248 373.487 174.408 373.447C178.174 372.244 182.056 371.446 185.991 371.064C186.048 371.055 186.1 371.027 186.139 370.984C186.177 370.94 186.2 370.885 186.202 370.827C186.204 370.769 186.187 370.713 186.152 370.666C186.117 370.62 186.067 370.587 186.011 370.574Z" fill="#263238"/>
<path d="M188.844 372.296C184.91 371.545 180.095 372.135 177.082 374.928C176.962 375.038 177.082 375.209 177.252 375.169C181.012 373.96 184.892 373.162 188.824 372.786C188.882 372.777 188.934 372.749 188.973 372.705C189.011 372.662 189.033 372.607 189.036 372.549C189.038 372.491 189.02 372.434 188.985 372.388C188.951 372.342 188.901 372.309 188.844 372.296Z" fill="#263238"/>
<path d="M187.632 358.05C186.091 355.918 183.207 356.869 181.566 358.24C178.782 360.658 176.683 363.765 175.479 367.25C175.472 367.265 175.47 367.282 175.471 367.298C175.472 367.315 175.478 367.33 175.487 367.344C175.496 367.358 175.508 367.37 175.522 367.378C175.537 367.386 175.553 367.39 175.569 367.39C175.569 367.691 175.849 368.011 176.18 367.881C179.433 366.69 183.067 365.819 185.85 363.656C187.482 362.395 189.094 360.072 187.632 358.05ZM180.745 365.058C179.163 365.678 177.551 366.229 175.99 366.91C177.125 365.123 178.351 363.396 179.664 361.734C180.306 360.937 181.005 360.187 181.756 359.492C182.927 358.421 187.572 356.168 186.861 360.493C186.471 362.865 182.637 364.307 180.745 365.058Z" fill="#263238"/>
<path d="M165.479 366.179C168.712 367.571 172.487 367.511 175.89 367.861C175.967 367.86 176.042 367.842 176.111 367.808C176.179 367.774 176.239 367.725 176.286 367.664C176.332 367.603 176.364 367.532 176.379 367.457C176.393 367.382 176.391 367.304 176.371 367.23C176.383 367.221 176.393 367.209 176.4 367.195C176.407 367.181 176.411 367.166 176.411 367.15C176.411 367.135 176.407 367.119 176.4 367.105C176.393 367.091 176.383 367.079 176.371 367.07C174.351 364.002 171.562 361.517 168.282 359.862C166.34 358.941 163.277 358.741 162.356 361.194C161.435 363.646 163.587 365.368 165.479 366.179ZM163.707 363.376C161.945 359.372 167.001 360.373 168.402 361.124C169.301 361.622 170.167 362.177 170.995 362.785C172.68 364.065 174.297 365.432 175.84 366.88C174.158 366.61 172.467 366.479 170.775 366.269C168.753 366.019 164.678 365.578 163.707 363.376Z" fill="#263238"/>
<path d="M184.609 359.622L136.738 360.483C136.738 360.483 130.221 318.127 125.936 291.789C124.314 281.888 123.033 274.24 122.512 271.937C121.271 266.441 97.0146 179.207 97.0146 179.207L131.812 179.157H143.705C143.705 179.157 142.944 193.743 143.395 195.275C149.601 216.387 162.285 253.828 166.249 266.872C172.326 286.924 184.609 359.622 184.609 359.622Z" fill="#A6A6A6"/>
<path d="M180.255 352.284C173.387 352.234 149.021 351.964 139.871 352.814C139.858 352.82 139.847 352.829 139.839 352.84C139.831 352.852 139.827 352.865 139.827 352.879C139.827 352.894 139.831 352.907 139.839 352.919C139.847 352.93 139.858 352.939 139.871 352.945C143.025 353.395 173.387 352.694 180.265 352.474C180.28 352.478 180.296 352.479 180.312 352.475C180.327 352.472 180.341 352.465 180.354 352.455C180.366 352.445 180.376 352.432 180.382 352.418C180.389 352.404 180.391 352.388 180.391 352.372C180.39 352.356 180.385 352.341 180.377 352.327C180.369 352.314 180.358 352.302 180.345 352.293C180.332 352.285 180.317 352.279 180.301 352.278C180.285 352.276 180.27 352.278 180.255 352.284Z" fill="#263238"/>
<path d="M137.518 316.185C135.863 305.233 134.018 294.308 131.982 283.409C130.981 278.053 129.89 272.708 128.489 267.392C127.087 262.076 125.305 256.82 123.483 251.605C119.899 241.234 116.476 230.812 113.262 220.321C110.049 209.83 107.055 199.298 104.252 188.677C103.892 187.335 103.542 185.994 103.151 184.673C103.151 184.562 102.961 184.613 102.981 184.673C104.072 190.018 105.484 195.314 106.835 200.6C108.187 205.885 109.638 211.151 111.15 216.397C114.193 226.928 117.493 237.386 121.05 247.771C122.822 252.936 124.664 258.092 126.236 263.328C127.808 268.563 129.029 273.869 130.12 279.215C132.333 290.066 134.215 300.988 135.957 311.91C137.698 322.832 139.19 333.934 140.652 344.946C140.842 346.337 141.022 347.739 141.202 349.14C141.252 349.531 141.873 349.531 141.833 349.14C140.702 338.158 139.15 327.156 137.518 316.185Z" fill="#263238"/>
<path d="M131.812 179.137L125.936 291.788C124.314 281.888 123.033 274.239 122.512 271.937C121.271 266.441 97.0146 179.207 97.0146 179.207L131.812 179.137Z" fill="#263238"/>
<path d="M146.549 399.385C144.476 400.076 85.1424 399.905 82.8799 398.464C82.029 397.933 81.5485 389.284 81.2682 378.823C81.1981 376.56 81.1581 374.238 81.118 371.865C81.118 369.052 81.0379 366.219 81.0179 363.456C80.9478 351.063 81.118 340.151 81.118 340.151H119.74V371.875L119.54 378.833C119.54 378.833 142.224 389.064 144.567 390.906C146.909 392.748 148.621 398.704 146.549 399.385Z" fill="#AD6359"/>
<path d="M146.548 399.385C144.476 400.076 85.142 399.905 82.8796 398.464C82.0287 397.933 81.5482 389.284 81.2678 378.823C81.1978 376.56 81.1577 374.238 81.1177 371.865C81.1177 369.052 81.0376 366.219 81.0176 363.456H119.729V371.875L119.529 378.833C119.529 378.833 142.214 389.064 144.556 390.906C146.899 392.748 148.621 398.704 146.548 399.385Z" fill="white"/>
<path d="M146.728 399.475C145.377 399.915 120.1 400.005 101.68 399.625C97.4251 399.535 93.5309 399.415 90.3875 399.285C86.0628 399.084 83.1597 398.844 82.6791 398.544C81.6781 397.873 81.1375 385.189 80.9072 371.795H119.719L119.519 378.802C119.519 378.802 142.354 389.084 144.676 390.896C146.999 392.707 148.811 398.774 146.728 399.475Z" fill="#FFCD00"/>
<path d="M145.877 397.082C135.866 396.812 95.5125 396.642 85.6118 397.132C85.5317 397.132 85.5317 397.192 85.6118 397.202C95.5125 397.683 135.876 397.523 145.877 397.253C146.087 397.243 146.087 397.092 145.877 397.082Z" fill="#263238"/>
<path d="M120.961 376.58C117.027 375.829 112.211 376.42 109.198 379.213C109.078 379.323 109.198 379.493 109.358 379.453C113.124 378.251 117.007 377.452 120.941 377.071C120.998 377.062 121.05 377.033 121.089 376.99C121.128 376.947 121.15 376.892 121.152 376.834C121.155 376.776 121.137 376.719 121.102 376.673C121.067 376.626 121.017 376.594 120.961 376.58Z" fill="#263238"/>
<path d="M123.794 378.302C119.859 377.552 115.044 378.142 112.031 380.935C111.911 381.045 112.031 381.216 112.201 381.175C115.965 379.966 119.848 379.167 123.784 378.793C123.841 378.783 123.892 378.753 123.93 378.709C123.967 378.665 123.988 378.609 123.989 378.552C123.991 378.494 123.972 378.438 123.936 378.392C123.9 378.347 123.85 378.315 123.794 378.302Z" fill="#263238"/>
<path d="M126.637 380.014C122.703 379.273 117.888 379.864 114.865 382.657C114.754 382.767 114.865 382.927 115.035 382.887C118.8 381.687 122.683 380.891 126.617 380.514C126.684 380.517 126.748 380.493 126.797 380.448C126.846 380.403 126.875 380.34 126.878 380.274C126.88 380.208 126.856 380.143 126.811 380.094C126.766 380.045 126.704 380.016 126.637 380.014Z" fill="#263238"/>
<path d="M129.47 381.736C125.535 380.995 120.72 381.586 117.707 384.379C117.587 384.489 117.707 384.649 117.867 384.609C121.633 383.41 125.516 382.614 129.45 382.236C129.516 382.239 129.581 382.215 129.63 382.17C129.678 382.125 129.707 382.063 129.71 381.996C129.713 381.93 129.689 381.865 129.644 381.816C129.599 381.767 129.536 381.739 129.47 381.736Z" fill="#263238"/>
<path d="M128.259 367.5C126.717 365.358 123.834 366.309 122.183 367.691C119.399 370.108 117.3 373.215 116.096 376.7C116.091 376.716 116.091 376.733 116.093 376.749C116.096 376.766 116.103 376.781 116.112 376.795C116.122 376.808 116.134 376.819 116.149 376.827C116.163 376.835 116.18 376.84 116.196 376.84C116.192 376.917 116.206 376.994 116.237 377.064C116.268 377.134 116.315 377.195 116.375 377.243C116.435 377.291 116.505 377.324 116.58 377.34C116.655 377.355 116.733 377.352 116.807 377.331C120.06 376.14 123.684 375.269 126.477 373.106C128.139 371.875 129.711 369.513 128.259 367.5ZM121.372 374.508C119.78 375.139 118.178 375.679 116.617 376.37C117.808 374.618 118.919 372.826 120.281 371.194C120.928 370.399 121.627 369.646 122.373 368.942C123.554 367.881 128.189 365.628 127.488 369.943C127.138 372.316 123.264 373.757 121.372 374.498V374.508Z" fill="#263238"/>
<path d="M106.115 375.629C109.358 377.021 113.122 376.96 116.536 377.311C116.613 377.311 116.69 377.294 116.759 377.259C116.829 377.224 116.889 377.173 116.935 377.111C116.981 377.048 117.011 376.976 117.024 376.899C117.036 376.822 117.03 376.744 117.006 376.67C117.022 376.665 117.036 376.656 117.048 376.645C117.06 376.634 117.069 376.62 117.075 376.604C117.08 376.589 117.083 376.573 117.081 376.556C117.08 376.54 117.075 376.524 117.066 376.51C115.027 373.445 112.221 370.968 108.928 369.322C106.986 368.401 103.922 368.201 103.001 370.654C102.08 373.106 104.203 374.818 106.115 375.629ZM104.353 372.816C102.591 368.812 107.646 369.813 109.048 370.574C109.948 371.065 110.815 371.617 111.641 372.225C113.323 373.511 114.941 374.881 116.486 376.33C114.794 376.049 113.102 375.929 111.41 375.719C109.378 375.469 105.304 375.028 104.333 372.816H104.353Z" fill="#263238"/>
<path d="M125.136 368.501H78.2949C78.2949 368.501 88.4759 223.265 86.8341 215.126C84.1412 201.801 85.9332 186.495 92.24 179.087H133.915C133.915 179.087 134.746 190.78 130.441 197.767C130.441 197.767 126.527 200.24 124.635 201.331L125.136 368.501Z" fill="#A6A6A6"/>
<path d="M120.77 360.923C114.283 360.763 116.155 360.713 109.658 360.623C106.484 360.573 85.632 360.283 82.6287 360.753C82.5587 360.753 82.5587 360.873 82.6287 360.883C85.632 361.394 106.474 361.324 109.658 361.304C116.145 361.304 114.283 361.214 120.77 361.114C120.79 361.107 120.807 361.094 120.82 361.077C120.832 361.06 120.839 361.04 120.839 361.019C120.839 360.997 120.832 360.977 120.82 360.96C120.807 360.943 120.79 360.93 120.77 360.923Z" fill="#263238"/>
<path d="M133.044 195.935C128.947 197.91 125.025 200.231 121.322 202.872C121.291 202.891 121.269 202.921 121.261 202.956C121.252 202.99 121.258 203.027 121.276 203.058C121.295 203.088 121.325 203.11 121.36 203.118C121.394 203.127 121.431 203.121 121.462 203.103C125.466 200.91 129.47 198.788 133.314 196.385C133.374 196.35 133.417 196.291 133.434 196.224C133.451 196.156 133.44 196.085 133.405 196.025C133.369 195.965 133.311 195.922 133.243 195.905C133.175 195.888 133.104 195.899 133.044 195.935Z" fill="#263238"/>
<path d="M127.727 195.334C127.49 196.143 127.303 196.965 127.167 197.797C126.997 198.45 126.952 199.13 127.037 199.799C127.037 199.929 127.247 199.919 127.307 199.799C127.621 199.168 127.837 198.493 127.948 197.797C128.148 197.026 128.368 196.265 128.538 195.495C128.658 195.004 127.887 194.834 127.727 195.334Z" fill="#263238"/>
<path d="M127.357 191.32C127.467 190.62 127.577 189.929 127.707 189.238C127.838 188.547 128.018 187.797 128.088 187.076C128.088 186.956 128.288 186.996 128.268 187.076C128.158 187.777 128.148 188.497 128.088 189.198C128.028 189.899 127.968 190.61 127.898 191.31C127.757 192.631 127.549 193.944 127.277 195.245C127.968 195.127 128.625 194.857 129.199 194.454C129.731 193.906 130.081 193.206 130.2 192.452C130.4 191.651 130.58 190.85 130.791 190.049C131.074 189.182 131.279 188.29 131.401 187.386C131.401 187.266 131.602 187.306 131.582 187.386C131.419 189.289 131.063 191.171 130.52 193.002C130.403 193.728 130.031 194.389 129.469 194.864C128.746 195.25 127.953 195.485 127.137 195.555C127.047 195.555 126.907 195.555 126.917 195.445C126.995 194.064 127.142 192.687 127.357 191.32Z" fill="#263238"/>
<path d="M93.6015 214.595C93.3011 211.532 92.8006 208.489 92.4703 205.425C91.8443 199.293 92.2161 193.099 93.5714 187.086C93.5714 186.975 93.4213 186.925 93.4013 187.086C92.216 192.367 91.6648 197.771 91.7595 203.183C92.0298 208.589 92.9908 213.915 93.0709 219.33C93.151 224.746 92.7305 230.292 92.3802 235.758C92.0298 241.224 91.6694 246.77 91.319 252.266C89.8975 274.38 88.5861 296.494 87.2346 318.618C86.8609 324.784 86.5005 330.958 86.1534 337.138C85.793 343.414 85.3526 349.701 85.1523 355.998C85.1523 356.539 85.9332 356.499 85.9832 355.998C86.9243 344.896 87.4648 333.754 88.1756 322.652C88.8864 311.55 89.5171 300.628 90.1778 289.616C90.8385 278.604 91.5092 267.593 92.1799 256.581C92.5003 251.081 92.834 245.582 93.181 240.083C93.5014 234.607 93.9018 229.121 93.9819 223.635C94.0259 220.617 93.8989 217.599 93.6015 214.595Z" fill="#263238"/>
<path d="M108.356 186.675C108.348 186.66 108.335 186.648 108.32 186.64C108.305 186.632 108.288 186.627 108.271 186.627C108.254 186.627 108.238 186.632 108.223 186.64C108.208 186.648 108.195 186.66 108.186 186.675C107.938 187.4 107.806 188.16 107.796 188.927C107.666 189.748 107.475 190.558 107.225 191.35C106.766 192.943 105.904 194.391 104.723 195.554C102.1 198.007 98.5859 198.918 95.2023 199.739C95.1799 199.746 95.1603 199.76 95.1464 199.779C95.1325 199.798 95.125 199.821 95.125 199.844C95.125 199.868 95.1325 199.89 95.1464 199.909C95.1603 199.928 95.1799 199.942 95.2023 199.949C97.2128 200.04 99.2212 199.727 101.109 199.028C102.792 198.513 104.346 197.643 105.664 196.475C106.922 195.278 107.782 193.723 108.126 192.021C108.305 191.131 108.399 190.225 108.407 189.318C108.407 188.887 108.407 188.457 108.407 188.016C108.478 187.57 108.461 187.114 108.356 186.675Z" fill="#263238"/>
<path d="M127.978 130.494C128.839 137.302 142.174 162.609 156.369 173.821C161.574 177.936 189.174 180.368 196.082 179.828C204.16 179.207 205.372 159.976 200.847 158.475C195.191 156.603 169.023 154.29 163.887 152.468C157.64 150.206 146.268 135.68 135.456 126.69C129.9 122.035 127.317 125.259 127.978 130.494Z" fill="#AD6359"/>
<path d="M196.082 179.838C198.635 179.768 210.317 178.426 213.491 177.325C216.664 176.224 225.504 172.4 224.943 169.887C224.383 167.374 221.66 168.285 221.66 168.285C221.66 168.285 225.154 166.073 224.323 163.6C223.492 161.128 219.317 162.689 219.317 162.689C219.317 162.689 222.741 160.156 221.73 157.744C220.719 155.331 216.825 157.604 216.825 157.604C216.825 157.604 220.068 155.431 218.406 153.79C216.404 151.787 210.878 156.503 207.294 157.454C206.473 157.674 190.456 160.667 190.456 160.667L196.082 179.838Z" fill="#AD6359"/>
<path d="M217.235 157.414C213.161 160.837 210.788 161.638 205.602 162.349C205.585 162.355 205.569 162.367 205.559 162.382C205.548 162.397 205.542 162.415 205.542 162.434C205.542 162.453 205.548 162.471 205.559 162.486C205.569 162.501 205.585 162.513 205.602 162.519C210.738 162.279 213.861 161.708 217.405 157.604C217.555 157.404 217.395 157.253 217.235 157.414Z" fill="#263238"/>
<path d="M219.667 162.409C215.133 165.652 212.57 166.483 207.224 167.654C207.154 167.654 207.174 167.805 207.224 167.795C212.59 167.104 215.693 166.463 219.808 162.679C219.978 162.489 219.878 162.259 219.667 162.409Z" fill="#263238"/>
<path d="M221.379 168.335C216.764 171.108 213.991 172.2 208.625 172.65C208.599 172.65 208.573 172.661 208.555 172.679C208.536 172.698 208.525 172.724 208.525 172.75C208.525 172.777 208.536 172.802 208.555 172.821C208.573 172.84 208.599 172.85 208.625 172.85C213.304 173.132 217.906 171.565 221.439 168.486C221.71 168.275 221.67 168.165 221.379 168.335Z" fill="#263238"/>
<path d="M186.752 158.564C189.448 156.822 192.269 155.279 195.191 153.949C198.014 152.948 209.927 152.948 210.057 155.531C210.237 158.855 203.36 160.186 199.906 160.406C199.906 160.406 200.337 168.085 195.602 170.117C190.866 172.149 186.752 158.564 186.752 158.564Z" fill="#AD6359"/>
<path d="M209.817 156.463C207.814 159.606 203.24 159.596 199.906 160.056C199.856 160.059 199.807 160.074 199.764 160.101C199.721 160.127 199.685 160.164 199.66 160.208C199.635 160.252 199.622 160.301 199.621 160.352C199.62 160.402 199.632 160.452 199.656 160.497C199.656 163.73 198.655 168.275 195.802 170.187C195.711 170.247 195.802 170.378 195.872 170.328C199.185 168.686 200.527 164.321 200.336 160.747C203.76 160.337 208.345 160.147 209.847 156.473C209.857 156.453 209.827 156.443 209.817 156.463Z" fill="#263238"/>
<path d="M172.237 179.467C172.237 179.467 158.101 175.603 156.38 174.252C154.501 172.775 152.709 171.191 151.014 169.507C138.15 156.863 130.381 139.624 128.279 133.618C126.057 127.221 128.099 121.094 134.055 125.219C134.535 125.558 134.996 125.922 135.437 126.31C142.445 132.417 161.185 150.987 163.467 151.938C165.75 152.889 176.752 154.33 176.752 154.33L172.237 179.467Z" fill="#455A64"/>
<path d="M151.014 169.507C138.15 156.863 130.381 139.624 128.279 133.618C126.057 127.221 128.099 121.094 134.055 125.219L151.014 169.507Z" fill="#263238"/>
<path d="M172.186 153.89C171.528 155.822 170.983 157.791 170.554 159.786C170.064 161.788 169.553 163.79 169.143 165.793C168.251 169.719 167.583 173.693 167.141 177.695C167.141 177.719 167.15 177.742 167.167 177.759C167.184 177.776 167.207 177.785 167.231 177.785C167.255 177.785 167.278 177.776 167.294 177.759C167.311 177.742 167.321 177.719 167.321 177.695C168.402 173.771 169.203 169.757 170.024 165.773C170.434 163.77 170.805 161.828 171.215 159.866C171.625 157.904 172.116 155.862 172.336 153.92C172.34 153.9 172.336 153.879 172.325 153.862C172.314 153.845 172.296 153.834 172.276 153.83C172.256 153.826 172.236 153.83 172.219 153.841C172.202 153.852 172.19 153.87 172.186 153.89Z" fill="#263238"/>
<path d="M141.693 144.359C142.023 145.841 142.283 147.363 142.484 148.924C142.479 148.864 142.479 148.804 142.484 148.744C142.564 147.893 142.624 147.022 142.774 146.181C142.774 146.181 142.854 146.131 142.854 146.181C142.906 147.047 142.872 147.915 142.754 148.774C142.704 149.185 142.654 149.595 142.594 149.996C142.664 150.686 142.724 151.377 142.764 152.058C142.844 153.359 143.094 158.915 143.064 159.866C143.064 160.066 142.834 160.086 142.784 159.866C142.594 158.865 142.093 153.169 141.953 151.858C141.691 149.357 141.564 146.844 141.573 144.329C141.593 144.299 141.673 144.309 141.693 144.359Z" fill="#263238"/>
<path d="M143.285 185.944C141.282 187.746 138.84 190.379 124.785 191.36C123.904 191.36 123.003 191.43 122.102 191.36C108.567 190.979 89.5765 180.348 88.4453 179.507C88.4453 179.507 103.031 140.044 122.322 124.898C125.075 122.726 130.981 123.797 134.675 126.029C135.997 126.83 140.361 134.128 141.242 140.775C142.123 147.422 145.277 184.142 143.285 185.944Z" fill="#455A64"/>
<path d="M132.323 135.92C128.919 136.2 124.044 130.314 122.442 125.909C122.332 125.609 123.213 122.736 124.114 119.192C124.654 117.04 125.205 114.637 125.545 112.405C125.615 111.944 127.047 113.025 127.047 113.025L129.83 114.167L139.04 117.951C137.809 120.62 136.912 123.431 136.367 126.32C136.337 126.633 136.337 126.948 136.367 127.261C136.371 127.311 136.371 127.361 136.367 127.411C136.337 129.183 135.606 135.62 132.323 135.92Z" fill="#EB9481"/>
<path d="M136.327 127.251C136.332 127.301 136.332 127.351 136.327 127.401C135.841 127.395 135.355 127.348 134.876 127.261C125.466 125.609 126.136 113.426 126.136 113.426L129.84 114.157L139.05 117.941C137.82 120.611 136.922 123.422 136.377 126.31C136.331 126.622 136.314 126.937 136.327 127.251Z" fill="#263238"/>
<path d="M124.595 97.7392C122.803 102.685 124.715 117.32 128.118 120.764C133.054 125.769 141.513 126.6 145.808 120.574C149.982 114.748 147.149 95.707 143.315 92.5436C137.659 87.9086 127.238 90.4413 124.595 97.7392Z" fill="#EB9481"/>
<path d="M137.929 107.87C137.929 107.87 137.858 107.93 137.868 107.97C138.019 108.971 138.039 110.103 137.178 110.543C137.178 110.543 137.178 110.603 137.178 110.593C138.269 110.303 138.239 108.771 137.929 107.87Z" fill="#263238"/>
<path d="M136.918 106.949C135.316 107.029 135.597 110.222 137.078 110.152C138.56 110.082 138.259 106.879 136.918 106.949Z" fill="#263238"/>
<path d="M143.996 107.209C143.996 107.209 144.076 107.209 144.076 107.289C144.136 108.29 144.367 109.411 145.288 109.672C144.156 109.662 143.886 108.16 143.996 107.209Z" fill="#263238"/>
<path d="M144.796 106.098C146.378 105.848 146.799 109.031 145.307 109.271C143.815 109.512 143.465 106.318 144.796 106.098Z" fill="#263238"/>
<path d="M135.677 104.587C136.097 104.436 136.468 104.226 136.878 104.036C137.325 103.906 137.715 103.631 137.989 103.255C138.056 103.12 138.075 102.967 138.044 102.82C138.013 102.673 137.934 102.541 137.819 102.444C137.559 102.294 137.264 102.215 136.963 102.215C136.663 102.215 136.367 102.294 136.107 102.444C135.533 102.661 135.061 103.086 134.786 103.635C134.736 103.762 134.723 103.901 134.748 104.035C134.774 104.169 134.837 104.293 134.93 104.393C135.023 104.493 135.143 104.564 135.275 104.598C135.408 104.632 135.547 104.628 135.677 104.587Z" fill="#263238"/>
<path d="M145.798 105.017C145.36 104.969 144.925 104.895 144.496 104.797C144.028 104.782 143.578 104.613 143.215 104.316C143.125 104.198 143.077 104.054 143.077 103.906C143.077 103.758 143.125 103.614 143.215 103.495C143.421 103.277 143.682 103.118 143.972 103.037C144.261 102.956 144.567 102.955 144.857 103.035C145.469 103.098 146.037 103.387 146.448 103.846C146.535 103.959 146.586 104.095 146.597 104.237C146.607 104.378 146.576 104.52 146.507 104.645C146.437 104.769 146.334 104.87 146.208 104.937C146.082 105.003 145.939 105.031 145.798 105.017Z" fill="#263238"/>
<path d="M142.604 112.595C142.704 113.316 142.768 114.041 142.794 114.768C141.44 114.773 140.093 114.962 138.79 115.328C138.489 115.428 138.489 115.168 138.79 114.968C139.809 114.361 140.989 114.078 142.173 114.157C142.173 113.967 141.833 111.894 141.943 111.884C142.481 111.939 143.009 112.064 143.515 112.255C143.204 109.172 142.404 106.158 142.133 103.085C142.133 102.975 142.283 102.935 142.314 103.035C143.281 106.235 143.921 109.526 144.226 112.855C144.316 113.246 142.884 112.705 142.604 112.595Z" fill="#263238"/>
<path d="M125.655 109.942C128.178 109.762 127.858 103.595 127.858 103.595C127.858 103.595 131.702 102.854 133.514 97.5888C133.514 97.5888 138.519 100.592 142.654 99.8312C149.141 98.5698 148.86 90.1107 146.408 88.4189C142.924 86.0163 136.817 89.6502 136.817 89.6502C136.817 89.6502 127.487 87.1775 124.804 93.5044C123.6 93.6031 122.478 94.1549 121.664 95.0485C120.85 95.9421 120.405 97.1111 120.42 98.3196C120.179 102.874 123.783 110.072 125.655 109.942Z" fill="#263238"/>
<path d="M126.967 104.336C128.834 103.99 130.532 103.032 131.793 101.613C132.47 100.846 132.952 99.9262 133.198 98.9327C133.443 97.9393 133.446 96.9012 133.204 95.9067C133.21 95.889 133.222 95.8737 133.237 95.8629C133.252 95.852 133.271 95.8462 133.289 95.8462C133.308 95.8462 133.326 95.852 133.341 95.8629C133.357 95.8737 133.368 95.889 133.374 95.9067C133.674 96.9479 133.74 98.0425 133.566 99.1121C133.393 100.182 132.986 101.2 132.373 102.093C131.761 102.94 130.939 103.613 129.987 104.045C129.036 104.477 127.988 104.653 126.947 104.556C126.887 104.506 126.857 104.356 126.967 104.336Z" fill="#263238"/>
<path d="M136.568 89.9306C137.372 88.6032 138.631 87.6139 140.112 87.1476C141.911 86.6368 143.836 86.8079 145.517 87.6281C146.186 87.9787 146.751 88.499 147.155 89.1368C147.559 89.7747 147.788 90.5076 147.82 91.262C147.84 93.0124 147.257 94.7164 146.168 96.0872C146.168 96.0872 146.078 96.0872 146.108 96.0872C146.977 94.7931 147.421 93.2606 147.379 91.7025C147.352 90.9611 147.116 90.2426 146.698 89.6297C146.28 89.0168 145.697 88.5346 145.017 88.2388C142.334 87.0875 138.43 87.3278 136.708 90.0607C136.658 90.1208 136.508 90.0207 136.568 89.9306Z" fill="#263238"/>
<path d="M127.137 109.712C127.137 109.712 124.004 104.917 121.832 106.028C119.659 107.139 121.932 114.037 124.404 115.038C124.712 115.188 125.047 115.275 125.389 115.292C125.731 115.31 126.073 115.258 126.395 115.141C126.717 115.023 127.011 114.841 127.261 114.607C127.51 114.372 127.71 114.09 127.848 113.776L127.137 109.712Z" fill="#EB9481"/>
<path d="M122.482 107.98C122.482 107.98 122.482 108.03 122.482 108.05C123.274 108.476 123.967 109.063 124.517 109.773C125.067 110.484 125.462 111.302 125.676 112.175C125.58 111.995 125.446 111.838 125.283 111.715C125.121 111.593 124.933 111.507 124.734 111.464C124.535 111.421 124.329 111.422 124.13 111.467C123.932 111.512 123.745 111.6 123.584 111.724C123.584 111.724 123.584 111.824 123.584 111.814C123.895 111.726 124.225 111.736 124.53 111.844C124.835 111.951 125.099 112.151 125.285 112.415C125.596 112.859 125.858 113.336 126.066 113.836C126.146 113.996 126.427 113.916 126.377 113.736C126.517 111.464 124.875 108.28 122.482 107.98Z" fill="#263238"/>
<path d="M32.7053 418.245H0V412.238H32.7053C58.6133 412.238 66.0013 390.064 67.633 371.464C68.9144 356.899 69.6953 339.159 70.5262 320.409C73.6395 250.153 76.863 177.505 105.134 177.505H131.042V183.511H105.114C82.5892 183.511 79.0854 262.787 76.5126 320.659C75.6717 339.51 74.8809 357.309 73.5995 372.015C70.9967 401.817 56.471 418.245 32.7053 418.245Z" fill="#FFCD00"/>
<path opacity="0.2" d="M131.042 177.475V183.482H110.38L109.099 177.475H131.042Z" fill="black"/>
<path d="M220.918 219.28H231.95V142.217H220.918V219.28Z" fill="#FFCD00"/>
<path d="M220.918 145.871H178.993V214.826H220.918V145.871Z" fill="#FFCD00"/>
<path opacity="0.2" d="M220.918 145.871V214.826H210.507L205.832 145.871H220.918Z" fill="black"/>
<path d="M115.484 186.615H146.588V174.331H115.484V186.615Z" fill="#FFCD00"/>
<path d="M146.588 174.342H115.484V186.625H146.588V174.342Z" fill="#FFCD00"/>
<path opacity="0.2" d="M135.666 186.615L136.687 174.342H146.588V186.615H135.666Z" fill="black"/>
<path d="M178.993 210.741H152.745C151.112 210.741 149.546 210.093 148.391 208.938C147.237 207.783 146.588 206.217 146.588 204.585V156.893C146.588 155.26 147.237 153.694 148.391 152.54C149.546 151.385 151.112 150.736 152.745 150.736H178.993V210.741Z" fill="#FFCD00"/>
<path opacity="0.2" d="M165.198 210.741L169.873 150.746H178.993V210.741H165.198Z" fill="black"/>
<g opacity="0.2">
<path d="M167.611 198.608H169.684V162.87H167.611V198.608Z" fill="black"/>
<path d="M161.755 198.608H163.827V162.87H161.755V198.608Z" fill="black"/>
<path d="M155.889 198.608H157.961V162.87H155.889V198.608Z" fill="black"/>
</g>
<path d="M113.572 138.773C112.571 153.229 111.43 182.67 117.817 191.31C126.196 202.642 149.851 209.519 156.859 211.582C159.862 212.473 167.06 192.561 165.278 189.698C163.496 186.835 139.08 180.688 137.158 179.006C135.236 177.325 129.149 153.859 126.256 141.906C122.512 126.83 113.983 133.067 113.572 138.773Z" fill="#EB9481"/>
<path d="M183.318 197.347C187.172 198.268 193.018 196.286 193.208 199.239C193.378 201.862 189.204 202.833 189.204 202.833C189.204 202.833 194.269 203.263 193.649 206.136C193.028 209.009 188.223 209.139 188.223 209.139C188.223 209.139 192.868 209.77 192.037 212.593C191.206 215.416 186.751 215.807 186.751 215.807C186.751 215.807 187.923 216.678 186.441 218.409C184.329 220.892 177.281 220.602 173.647 219.581C170.013 218.56 157.43 212.113 155.518 211.082L161.894 187.656C161.894 187.656 169.212 186.495 172.996 186.355C176.781 186.215 189.364 189.218 188.834 192.361C188.303 195.505 179.443 193.262 177.151 193.182C174.858 193.102 174.458 193.613 175.459 194.454C176.11 195.044 181.606 196.936 183.318 197.347Z" fill="#EB9481"/>
<path d="M188.974 202.782C183.058 203.783 180.295 203.123 174.869 200.78C174.759 200.73 174.669 200.88 174.779 200.94C179.884 203.693 183.238 204.945 189.034 203.053C189.324 202.972 189.264 202.742 188.974 202.782Z" fill="#263238"/>
<path d="M188.453 209.039C182.216 209.49 179.223 208.859 173.357 206.837C173.277 206.837 173.217 206.947 173.297 206.987C178.893 209.44 182.256 210.631 188.433 209.36C188.713 209.31 188.743 209.019 188.453 209.039Z" fill="#263238"/>
<path d="M186.672 215.766C180.595 215.766 177.282 215.206 171.836 212.523C171.811 212.51 171.782 212.508 171.755 212.516C171.728 212.524 171.706 212.542 171.692 212.566C171.678 212.59 171.673 212.619 171.68 212.646C171.686 212.674 171.702 212.697 171.726 212.713C177.011 215.996 181.146 216.717 186.652 215.956C187.022 215.896 187.052 215.766 186.672 215.766Z" fill="#263238"/>
<path d="M138.39 206.887C138.39 206.887 119.299 197.296 116.366 189.948C112.762 180.778 111.29 154.04 112.692 140.325C114.094 126.61 123.644 128.312 126.707 140.435C129.71 152.268 136.488 175.903 137.188 177.014C138.079 178.446 148.971 181.139 148.971 181.139" fill="#455A64"/>
<path d="M136.478 173.951C136.148 172.82 135.567 170.267 135.237 169.166C134.566 166.964 133.895 164.751 133.234 162.549C132.574 160.347 131.863 158.134 131.132 155.942C131.002 155.571 130.882 155.191 130.762 154.821C130.822 154.58 130.552 151.677 130.572 150.966C130.572 150.856 130.391 150.846 130.401 150.966C130.428 151.678 130.405 152.39 130.331 153.099C130.331 153.229 130.331 153.369 130.331 153.499C129.871 152.058 129.41 150.626 128.94 149.225C128.94 149.124 128.74 149.164 128.77 149.225C129.671 152.228 130.111 154.12 130.772 156.552C131.433 158.985 132.113 161.248 132.774 163.56C133.435 165.873 134.206 168.225 134.936 170.568C135.347 171.956 135.829 173.322 136.378 174.662C136.798 175.563 136.818 175.143 136.478 173.951Z" fill="#263238"/>
<path d="M114.944 182.03C114.554 179.557 114.164 177.025 113.863 174.582C113.253 169.577 112.862 164.651 112.642 159.646C112.512 156.783 112.302 153.94 112.141 151.087C112.141 151.057 112.13 151.029 112.109 151.009C112.089 150.988 112.061 150.977 112.031 150.977C112.002 150.977 111.974 150.988 111.953 151.009C111.933 151.029 111.921 151.057 111.921 151.087C111.921 153.629 111.831 156.162 111.921 158.705C111.921 159.075 111.921 159.446 111.921 159.816L111.801 159.296C111.431 157.844 110.91 156.422 110.59 154.951C110.581 154.934 110.566 154.921 110.549 154.913C110.531 154.906 110.511 154.905 110.493 154.912C110.475 154.918 110.46 154.93 110.45 154.946C110.44 154.963 110.436 154.982 110.44 155.001C110.8 156.462 110.99 158.004 111.331 159.436C111.511 160.166 111.691 160.897 111.891 161.628L111.991 161.938C112.051 163.4 112.121 164.862 112.222 166.323C112.493 171.339 113.071 176.334 113.953 181.279C114.558 184.513 115.432 187.691 116.566 190.78C116.572 190.795 116.582 190.808 116.596 190.817C116.609 190.827 116.625 190.832 116.641 190.832C116.658 190.832 116.674 190.827 116.687 190.817C116.7 190.808 116.711 190.795 116.716 190.78C116.126 188.307 115.345 184.503 114.944 182.03Z" fill="#263238"/>
<path d="M145.427 181.129C144.381 182.927 143.445 184.785 142.624 186.695C141.743 188.577 140.852 190.459 140.021 192.361C138.336 196.107 136.862 199.944 135.606 203.854C135.604 203.876 135.609 203.898 135.62 203.917C135.631 203.935 135.649 203.95 135.669 203.958C135.69 203.966 135.712 203.967 135.734 203.961C135.755 203.955 135.773 203.942 135.786 203.924C137.648 200.22 139.24 196.366 140.862 192.552C141.663 190.67 142.433 188.768 143.224 186.885C144.015 185.003 144.916 183.111 145.527 181.169C145.547 181.109 145.457 181.079 145.427 181.129Z" fill="#263238"/>
<path d="M214.232 48.4459C214.232 49.124 214.097 49.7954 213.835 50.4207C213.573 51.0461 213.189 51.613 212.705 52.0883C212.221 52.5636 211.648 52.9377 211.018 53.1889C210.388 53.4402 209.714 53.5634 209.036 53.5514H208.115V60.559C208.115 61.913 207.578 63.2117 206.62 64.1691C205.663 65.1266 204.364 65.6645 203.01 65.6645C201.656 65.6645 200.357 65.1266 199.4 64.1691C198.442 63.2117 197.904 61.913 197.904 60.559V53.5514H168.643C167.487 53.5934 166.359 53.1923 165.489 52.4302C164.951 52.0276 164.499 51.5194 164.164 50.9365C163.828 50.3536 163.615 49.7084 163.537 49.0403C163.459 48.3721 163.519 47.6952 163.711 47.0508C163.904 46.4064 164.227 45.8081 164.658 45.2925L198.986 2.61641C199.076 2.61641 199.076 2.5163 199.166 2.4262C199.283 2.3225 199.378 2.1966 199.446 2.0558C199.625 2.01279 199.786 1.91476 199.907 1.7755C200.007 1.6854 200.187 1.5953 200.277 1.4952C200.442 1.38029 200.637 1.31751 200.838 1.315C200.928 1.1248 201.018 1.0347 201.208 1.0347C201.398 1.0347 201.488 0.944602 201.769 0.854505C201.9 0.867548 202.032 0.831932 202.139 0.754395H203.711C203.854 0.83519 204.018 0.870139 204.181 0.854505C204.271 0.944602 204.552 0.944603 204.732 1.0347C204.912 1.1248 205.012 1.1248 205.102 1.1248C205.252 1.25742 205.409 1.3811 205.573 1.4952C205.753 1.5953 205.843 1.6854 206.033 1.7755C206.046 1.77542 206.059 1.77804 206.07 1.78318C206.082 1.78832 206.092 1.79587 206.101 1.80532C206.109 1.81478 206.116 1.82593 206.12 1.83805C206.123 1.85016 206.125 1.86296 206.123 1.87561C206.213 1.87561 206.404 1.96571 206.404 2.0558L206.774 2.4262C206.864 2.5163 206.964 2.7065 207.054 2.7966C207.194 2.94006 207.318 3.09776 207.425 3.26711C207.448 3.4072 207.515 3.53655 207.615 3.63751C207.69 3.81582 207.75 3.99996 207.795 4.1881C207.795 4.2782 207.885 4.46841 207.885 4.55851C207.972 4.73174 208.007 4.92649 207.985 5.11911C207.985 5.2993 208.075 5.39941 208.075 5.57961V43.3404H208.996C209.676 43.3311 210.35 43.4559 210.981 43.7076C211.612 43.9593 212.187 44.333 212.673 44.8072C213.159 45.2814 213.547 45.8469 213.815 46.4713C214.082 47.0957 214.224 47.7667 214.232 48.4459ZM197.904 20.4156L179.404 43.3404H197.864L197.904 20.4156Z" fill="#263238"/>
<path d="M226.436 33.2295C226.526 24.6902 228.658 16.9919 232.742 11.0555C236.637 5.11911 242.673 0.754395 250.001 0.754395C257.139 0.754395 263.265 5.11911 267.16 11.0555C271.054 16.9919 273.376 24.6902 273.376 33.2295C273.376 41.7687 271.154 49.467 267.16 55.4034C263.165 61.3398 257.149 65.7045 250.001 65.7045C242.673 65.7045 236.637 61.2497 232.742 55.4034C228.658 49.467 226.526 41.6686 226.436 33.2295ZM263.075 33.2295C263.179 27.4147 261.639 21.6888 258.63 16.7116C255.937 12.8174 252.874 10.9654 250.001 11.0555C247.118 10.9654 243.995 12.8174 241.181 16.7116C238.17 21.6878 236.625 27.4137 236.727 33.2295C236.623 39.014 238.168 44.7085 241.181 49.6472C243.964 53.6515 247.118 55.4034 250.001 55.4034C252.884 55.4034 255.937 53.6415 258.63 49.6472C261.323 45.6529 263.075 39.8166 263.075 33.2295Z" fill="#263238"/>
<path d="M330.027 48.4459C330.026 49.1245 329.89 49.796 329.627 50.4215C329.363 51.0469 328.978 51.6137 328.494 52.0889C328.009 52.564 327.435 52.938 326.805 53.1891C326.174 53.4402 325.5 53.5634 324.822 53.5514H323.901V60.559C323.901 61.913 323.363 63.2117 322.405 64.1691C321.448 65.1266 320.149 65.6645 318.795 65.6645C317.441 65.6645 316.143 65.1266 315.185 64.1691C314.228 63.2117 313.69 61.913 313.69 60.559V53.5514H284.468C283.309 53.596 282.177 53.1947 281.305 52.4302C280.766 52.0276 280.315 51.5194 279.979 50.9365C279.644 50.3536 279.43 49.7084 279.353 49.0403C279.275 48.3721 279.334 47.6952 279.527 47.0508C279.72 46.4064 280.042 45.8081 280.474 45.2925L314.801 2.61641C314.891 2.61641 314.891 2.5163 314.981 2.4262C315.098 2.3225 315.193 2.1966 315.261 2.0558C315.441 2.01279 315.602 1.91476 315.722 1.7755C315.822 1.6854 316.002 1.5953 316.092 1.4952C316.257 1.38029 316.452 1.31751 316.653 1.315C316.743 1.1248 316.833 1.0347 317.023 1.0347C317.214 1.0347 317.304 0.944602 317.584 0.854505C317.716 0.867548 317.847 0.831932 317.954 0.754395H319.526C319.669 0.83519 319.833 0.870139 319.997 0.854505C320.087 0.944602 320.367 0.944603 320.547 1.0347C320.727 1.1248 320.827 1.1248 320.918 1.1248C321.108 1.315 321.288 1.4051 321.378 1.4952C321.468 1.58529 321.658 1.6854 321.849 1.7755C321.861 1.77542 321.874 1.77804 321.886 1.78318C321.897 1.78832 321.908 1.79587 321.916 1.80532C321.925 1.81478 321.931 1.82593 321.935 1.83805C321.939 1.85016 321.94 1.86296 321.939 1.87561C322.029 1.87561 322.219 1.96571 322.219 2.0558L322.589 2.4262C322.679 2.5163 322.78 2.7065 322.87 2.7966C323.009 2.94006 323.133 3.09776 323.24 3.26711C323.264 3.4072 323.33 3.53655 323.43 3.63751C323.505 3.81582 323.566 3.99996 323.611 4.1881C323.611 4.2782 323.701 4.46841 323.701 4.55851C323.784 4.73276 323.815 4.92746 323.791 5.11911C323.791 5.2993 323.891 5.39941 323.891 5.57961V43.3404H324.812C326.179 43.3297 327.495 43.8606 328.473 44.8173C329.45 45.7739 330.009 47.0785 330.027 48.4459ZM313.69 20.4156L295.23 43.3404H313.69V20.4156Z" fill="#263238"/>
<path d="M250.43 129.323C250.297 129.323 250.17 129.27 250.076 129.177C249.982 129.083 249.93 128.955 249.93 128.823V114.737C249.93 114.605 249.982 114.477 250.076 114.383C250.17 114.29 250.297 114.237 250.43 114.237C250.563 114.237 250.69 114.29 250.784 114.383C250.878 114.477 250.931 114.605 250.931 114.737V128.823C250.931 128.955 250.878 129.083 250.784 129.177C250.69 129.27 250.563 129.323 250.43 129.323Z" fill="#263238"/>
<path d="M224.943 136.07C224.854 136.07 224.767 136.047 224.69 136.004C224.612 135.96 224.548 135.896 224.503 135.82L217.495 123.617C217.454 123.56 217.425 123.495 217.41 123.427C217.396 123.358 217.396 123.288 217.41 123.219C217.425 123.151 217.453 123.086 217.494 123.029C217.535 122.972 217.588 122.925 217.648 122.89C217.709 122.854 217.776 122.832 217.846 122.825C217.915 122.817 217.986 122.824 218.053 122.846C218.119 122.867 218.181 122.902 218.233 122.949C218.285 122.995 218.327 123.052 218.356 123.116L225.364 135.319C225.398 135.376 225.42 135.438 225.429 135.503C225.438 135.568 225.434 135.634 225.418 135.698C225.401 135.761 225.371 135.821 225.331 135.873C225.291 135.925 225.241 135.968 225.183 136C225.111 136.045 225.028 136.069 224.943 136.07Z" fill="#263238"/>
<path d="M217.615 236.499C217.527 236.499 217.44 236.475 217.365 236.429C217.309 236.392 217.261 236.345 217.224 236.29C217.186 236.234 217.161 236.172 217.149 236.106C217.137 236.041 217.138 235.973 217.153 235.908C217.168 235.843 217.195 235.782 217.235 235.728L224.242 223.535C224.275 223.478 224.319 223.427 224.371 223.387C224.423 223.347 224.483 223.317 224.547 223.3C224.61 223.283 224.677 223.278 224.742 223.287C224.808 223.295 224.871 223.317 224.928 223.35C224.985 223.382 225.035 223.426 225.076 223.478C225.116 223.531 225.145 223.59 225.163 223.654C225.18 223.718 225.184 223.784 225.176 223.85C225.167 223.915 225.146 223.978 225.113 224.035L218.106 236.228C218.06 236.317 217.989 236.39 217.902 236.439C217.814 236.487 217.714 236.508 217.615 236.499Z" fill="#263238"/>
<path d="M250.111 245.288C249.978 245.288 249.851 245.236 249.757 245.142C249.663 245.048 249.61 244.921 249.61 244.788V230.723C249.61 230.59 249.663 230.463 249.757 230.369C249.851 230.275 249.978 230.222 250.111 230.222C250.243 230.225 250.369 230.278 250.462 230.372C250.555 230.465 250.609 230.591 250.611 230.723V244.808C250.606 244.937 250.551 245.059 250.458 245.149C250.365 245.239 250.24 245.289 250.111 245.288Z" fill="#263238"/>
<path d="M282.645 236.659C282.558 236.658 282.472 236.635 282.397 236.591C282.321 236.547 282.259 236.484 282.215 236.409L275.207 224.215C275.175 224.158 275.153 224.095 275.145 224.03C275.136 223.964 275.141 223.898 275.158 223.834C275.175 223.771 275.205 223.711 275.245 223.659C275.285 223.606 275.335 223.563 275.393 223.53C275.45 223.497 275.513 223.476 275.578 223.467C275.644 223.459 275.71 223.463 275.774 223.48C275.838 223.497 275.897 223.527 275.949 223.567C276.002 223.608 276.045 223.658 276.078 223.715L283.086 235.908C283.12 235.964 283.142 236.027 283.151 236.092C283.161 236.157 283.157 236.223 283.14 236.287C283.123 236.35 283.094 236.409 283.053 236.461C283.013 236.513 282.963 236.557 282.906 236.589C282.828 236.637 282.737 236.661 282.645 236.659Z" fill="#263238"/>
<path d="M275.879 136.23C275.79 136.231 275.704 136.207 275.628 136.16C275.571 136.128 275.521 136.085 275.481 136.033C275.44 135.981 275.411 135.922 275.394 135.858C275.377 135.795 275.374 135.728 275.383 135.663C275.392 135.598 275.414 135.536 275.448 135.48L282.456 123.276C282.529 123.176 282.636 123.107 282.757 123.081C282.879 123.056 283.005 123.076 283.112 123.138C283.219 123.2 283.299 123.3 283.337 123.418C283.375 123.536 283.368 123.664 283.317 123.777L276.309 135.98C276.264 136.055 276.201 136.116 276.126 136.16C276.051 136.204 275.966 136.228 275.879 136.23Z" fill="#263238"/>
</svg>
